<?xml version="1.0" encoding="UTF-8"?>
<!DOCTYPE svg PUBLIC "-//W3C//DTD SVG 1.1//EN" "http://www.w3.org/Graphics/SVG/1.1/DTD/svg11.dtd">
<svg xmlns="http://www.w3.org/2000/svg" version="1.1" width="259px" height="273px" style="shape-rendering:geometricPrecision; text-rendering:geometricPrecision; image-rendering:optimizeQuality; fill-rule:evenodd; clip-rule:evenodd" xmlns:xlink="http://www.w3.org/1999/xlink">
<g><path style="opacity:0.384" fill="#c2bfc5" d="M 133.5,20.5 C 124.066,19.6893 119.732,24.0226 120.5,33.5C 117.697,25.4614 120.53,20.7947 129,19.5C 130.707,19.5085 132.207,19.8418 133.5,20.5 Z"/></g>
<g><path style="opacity:0.031" fill="#dbdbdb" d="M 133.5,20.5 C 135.5,20.5 136.5,21.5 136.5,23.5C 135.167,22.8333 134.167,21.8333 133.5,20.5 Z"/></g>
<g><path style="opacity:0.545" fill="#a8a3a5" d="M 136.5,23.5 C 138.387,24.7679 139.387,26.6013 139.5,29C 138.343,32.1135 137.843,35.2802 138,38.5C 139.518,39.1634 140.685,40.1634 141.5,41.5C 138.702,41.3697 136.702,40.0363 135.5,37.5C 137.538,32.9178 137.871,28.2512 136.5,23.5 Z"/></g>
<g><path style="opacity:1" fill="#342d1c" d="M 133.5,20.5 C 134.167,21.8333 135.167,22.8333 136.5,23.5C 137.871,28.2512 137.538,32.9178 135.5,37.5C 136.702,40.0363 138.702,41.3697 141.5,41.5C 142.167,41.5 142.5,41.8333 142.5,42.5C 142.335,46.1817 142.501,49.8484 143,53.5C 144.356,54.3802 145.856,54.7135 147.5,54.5C 148.5,55.1667 149.5,55.8333 150.5,56.5C 146.846,56.0578 143.179,55.7244 139.5,55.5C 140.529,49.5444 139.029,44.5444 135,40.5C 134.125,39.1268 133.625,37.6268 133.5,36C 135.141,32.6547 135.641,29.1547 135,25.5C 129.093,20.7449 124.927,21.9115 122.5,29C 122.395,31.1782 123.061,33.0115 124.5,34.5C 124.518,38.1293 123.184,41.1293 120.5,43.5C 118.577,47.0293 117.911,51.0293 118.5,55.5C 116.167,55.5 113.833,55.5 111.5,55.5C 112.833,54.8333 114.167,54.1667 115.5,53.5C 115.395,49.4517 115.728,45.4517 116.5,41.5C 119.887,41.2835 121.887,39.4502 122.5,36C 122.361,34.699 121.695,33.8656 120.5,33.5C 119.732,24.0226 124.066,19.6893 133.5,20.5 Z"/></g>
<g><path style="opacity:1" fill="#c7c240" d="M 124.5,34.5 C 125.776,37.1852 125.442,39.8519 123.5,42.5C 122.675,43.3857 121.675,43.719 120.5,43.5C 123.184,41.1293 124.518,38.1293 124.5,34.5 Z"/></g>
<g><path style="opacity:0.108" fill="#e1e1e0" d="M 66.5,40.5 C 69.3404,39.0829 72.007,39.4162 74.5,41.5C 71.8728,40.9084 69.2062,40.5751 66.5,40.5 Z"/></g>
<g><path style="opacity:0.047" fill="#c8c8c5" d="M 191.5,40.5 C 193.027,40.427 194.027,41.0937 194.5,42.5C 192.973,42.573 191.973,41.9063 191.5,40.5 Z"/></g>
<g><path style="opacity:0.745" fill="#9b9b9a" d="M 74.5,41.5 C 76.5869,42.5846 77.9202,44.2512 78.5,46.5C 76.4131,45.4154 75.0798,43.7488 74.5,41.5 Z"/></g>
<g><path style="opacity:0.408" fill="#cfcccb" d="M 191.5,40.5 C 186.948,40.2771 183.281,41.9437 180.5,45.5C 182.655,40.2525 186.322,38.5858 191.5,40.5 Z"/></g>
<g><path style="opacity:1" fill="#383123" d="M 66.5,40.5 C 69.2062,40.5751 71.8728,40.9084 74.5,41.5C 75.0798,43.7488 76.4131,45.4154 78.5,46.5C 79.4511,47.9187 79.7845,49.5853 79.5,51.5C 81.2184,53.796 83.385,54.1294 86,52.5C 87.3026,52.9783 88.4693,53.645 89.5,54.5C 89.7376,56.4044 90.7376,57.7377 92.5,58.5C 93.0527,60.5518 94.0527,60.8852 95.5,59.5C 97.698,59.8799 99.3646,59.2132 100.5,57.5C 102.861,57.3259 105.194,56.9926 107.5,56.5C 103.007,58.579 98.674,60.9123 94.5,63.5C 91.2549,62.2555 88.9215,59.9221 87.5,56.5C 84.5535,55.6786 81.5535,55.1786 78.5,55C 76.8787,52.834 76.0454,50.334 76,47.5C 72.3058,42.6584 68.3058,42.3251 64,46.5C 63.5026,49.146 63.3359,51.8127 63.5,54.5C 62.8333,54.5 62.1667,54.5 61.5,54.5C 60.833,52.1806 60.6664,49.8473 61,47.5C 62.6665,45.0043 64.4998,42.671 66.5,40.5 Z"/></g>
<g><path style="opacity:0.165" fill="#d2d2d3" d="M 66.5,40.5 C 64.4998,42.671 62.6665,45.0043 61,47.5C 60.6664,49.8473 60.833,52.1806 61.5,54.5C 61.5,54.8333 61.5,55.1667 61.5,55.5C 57.8005,48.7881 59.4671,43.7881 66.5,40.5 Z"/></g>
<g><path style="opacity:0.145" fill="#d5d4d3" d="M 120.5,33.5 C 121.695,33.8656 122.361,34.699 122.5,36C 121.887,39.4502 119.887,41.2835 116.5,41.5C 115.728,45.4517 115.395,49.4517 115.5,53.5C 114.5,53.5 113.5,53.5 112.5,53.5C 114.14,50.1497 114.974,46.483 115,42.5C 116.262,40.6972 117.929,39.3639 120,38.5C 120.494,36.8659 120.66,35.1992 120.5,33.5 Z"/></g>
<g><path style="opacity:0.482" fill="#a4a4a2" d="M 142.5,42.5 C 143.321,45.6414 143.821,48.9748 144,52.5C 145.302,53.0848 146.469,53.7515 147.5,54.5C 145.856,54.7135 144.356,54.3802 143,53.5C 142.501,49.8484 142.335,46.1817 142.5,42.5 Z"/></g>
<g><path style="opacity:0.271" fill="#bdbcbf" d="M 194.5,42.5 C 196.61,43.4525 197.777,45.1192 198,47.5C 198.796,50.0385 198.629,52.3718 197.5,54.5C 197.709,50.1394 196.709,46.1394 194.5,42.5 Z"/></g>
<g><path style="opacity:0.157" fill="#cfcfce" d="M 79.5,51.5 C 82.4032,51.9073 85.4032,52.0739 88.5,52C 89.2524,52.6708 89.5858,53.5041 89.5,54.5C 88.4693,53.645 87.3026,52.9783 86,52.5C 83.385,54.1294 81.2184,53.796 79.5,51.5 Z"/></g>
<g><path style="opacity:0.208" fill="#d5d2d2" d="M 174.5,52.5 C 172.708,52.366 171.042,52.6993 169.5,53.5C 171.042,52.6993 172.708,52.366 174.5,52.5 Z"/></g>
<g><path style="opacity:0.922" fill="#9a9592" d="M 180.5,45.5 C 180.5,47.8333 180.5,50.1667 180.5,52.5C 178.309,53.2907 176.309,53.2907 174.5,52.5C 175.583,52.4606 176.583,52.1272 177.5,51.5C 178.208,49.2549 179.208,47.2549 180.5,45.5 Z"/></g>
<g><path style="opacity:0.992" fill="#696259" d="M 61.5,54.5 C 62.1667,54.5 62.8333,54.5 63.5,54.5C 64.5,54.8333 65.1667,55.5 65.5,56.5C 64.2617,56.81 64.2617,57.31 65.5,58C 66.448,58.4828 67.448,58.6495 68.5,58.5C 68.5,61.5 68.5,64.5 68.5,67.5C 67.8333,67.5 67.1667,67.5 66.5,67.5C 67.1098,66.609 67.4431,65.609 67.5,64.5C 67.762,63.0222 67.4287,61.6888 66.5,60.5C 64.4788,59.1455 62.8121,57.4788 61.5,55.5C 61.5,55.1667 61.5,54.8333 61.5,54.5 Z"/></g>
<g><path style="opacity:0.016" fill="#cbcaca" d="M 147.5,54.5 C 151.214,54.5902 154.548,55.5902 157.5,57.5C 155.194,57.0074 152.861,56.6741 150.5,56.5C 149.5,55.8333 148.5,55.1667 147.5,54.5 Z"/></g>
<g><path style="opacity:0.404" fill="#cccbcb" d="M 169.5,53.5 C 169.262,55.4044 168.262,56.7377 166.5,57.5C 166.738,55.5956 167.738,54.2623 169.5,53.5 Z"/></g>
<g><path style="opacity:0.498" fill="#bfbcbe" d="M 89.5,54.5 C 91.2624,55.2623 92.2624,56.5956 92.5,58.5C 90.7376,57.7377 89.7376,56.4044 89.5,54.5 Z"/></g>
<g><path style="opacity:0.012" fill="#dddddd" d="M 197.5,54.5 C 197.573,56.0269 196.906,57.0269 195.5,57.5C 195.427,55.9731 196.094,54.9731 197.5,54.5 Z"/></g>
<g><path style="opacity:0.784" fill="#807d75" d="M 112.5,53.5 C 113.5,53.5 114.5,53.5 115.5,53.5C 114.167,54.1667 112.833,54.8333 111.5,55.5C 110.432,56.4345 109.099,56.7678 107.5,56.5C 105.194,56.9926 102.861,57.3259 100.5,57.5C 104.303,55.8751 108.303,54.5418 112.5,53.5 Z"/></g>
<g><path style="opacity:1" fill="#e5e331" d="M 111.5,55.5 C 113.833,55.5 116.167,55.5 118.5,55.5C 118.209,56.6491 117.376,57.3158 116,57.5C 109.385,57.0022 104.219,59.3355 100.5,64.5C 98.5648,63.8505 96.5648,63.5172 94.5,63.5C 98.674,60.9123 103.007,58.579 107.5,56.5C 109.099,56.7678 110.432,56.4345 111.5,55.5 Z"/></g>
<g><path style="opacity:1" fill="#f9f10f" d="M 150.5,56.5 C 155.362,59.6402 160.695,61.9735 166.5,63.5C 166.092,64.6431 165.425,65.6431 164.5,66.5C 160.594,64.9254 156.928,62.9254 153.5,60.5C 150.05,62.2242 146.383,62.8909 142.5,62.5C 142.5,63.5 142.5,64.5 142.5,65.5C 145.833,66.7 149.167,66.7 152.5,65.5C 153.938,65.7189 155.271,66.2189 156.5,67C 154.956,67.2896 153.623,67.9563 152.5,69C 153.973,69.7096 154.64,70.8762 154.5,72.5C 152.821,72.2852 151.821,72.9519 151.5,74.5C 149.412,73.0605 147.079,72.3939 144.5,72.5C 143.833,72.1667 143.167,71.8333 142.5,71.5C 139.939,69.9065 136.939,68.9065 133.5,68.5C 132.487,65.8122 131.487,63.1456 130.5,60.5C 130.278,57.3147 128.778,56.3147 126,57.5C 125.064,61.1135 124.564,64.7802 124.5,68.5C 121.859,67.7369 119.192,67.5702 116.5,68C 114.968,68.6995 113.968,69.8662 113.5,71.5C 111.955,72.4519 110.288,72.7852 108.5,72.5C 107.374,71.2858 106.041,70.2858 104.5,69.5C 101.429,71.18 98.0958,71.8467 94.5,71.5C 94.5,70.5 94.5,69.5 94.5,68.5C 96.8568,68.6633 99.1902,68.4966 101.5,68C 100.833,67.6667 100.167,67.3333 99.5,67C 100.252,66.3292 100.586,65.4959 100.5,64.5C 104.219,59.3355 109.385,57.0022 116,57.5C 117.376,57.3158 118.209,56.6491 118.5,55.5C 117.911,51.0293 118.577,47.0293 120.5,43.5C 121.675,43.719 122.675,43.3857 123.5,42.5C 125.442,39.8519 125.776,37.1852 124.5,34.5C 123.061,33.0115 122.395,31.1782 122.5,29C 124.927,21.9115 129.093,20.7449 135,25.5C 135.641,29.1547 135.141,32.6547 133.5,36C 133.625,37.6268 134.125,39.1268 135,40.5C 139.029,44.5444 140.529,49.5444 139.5,55.5C 143.179,55.7244 146.846,56.0578 150.5,56.5 Z"/></g>
<g><path style="opacity:1" fill="#e4e02f" d="M 130.5,60.5 C 129.178,60.33 128.011,60.6634 127,61.5C 126.178,64.1168 125.678,66.7835 125.5,69.5C 121.671,68.931 118.337,69.5977 115.5,71.5C 112.82,73.2735 109.82,74.6068 106.5,75.5C 107.167,74.5 107.833,73.5 108.5,72.5C 110.288,72.7852 111.955,72.4519 113.5,71.5C 113.968,69.8662 114.968,68.6995 116.5,68C 119.192,67.5702 121.859,67.7369 124.5,68.5C 124.564,64.7802 125.064,61.1135 126,57.5C 128.778,56.3147 130.278,57.3147 130.5,60.5 Z"/></g>
<g><path style="opacity:0.071" fill="#dad8d9" d="M 100.5,57.5 C 99.3646,59.2132 97.698,59.8799 95.5,59.5C 96.9303,58.4625 98.597,57.7959 100.5,57.5 Z"/></g>
<g><path style="opacity:0.118" fill="#d4d4d5" d="M 92.5,58.5 C 93.391,59.1098 94.391,59.4431 95.5,59.5C 94.0527,60.8852 93.0527,60.5518 92.5,58.5 Z"/></g>
<g><path style="opacity:1" fill="#f7f015" d="M 94.5,63.5 C 96.5648,63.5172 98.5648,63.8505 100.5,64.5C 100.586,65.4959 100.252,66.3292 99.5,67C 100.167,67.3333 100.833,67.6667 101.5,68C 99.1902,68.4966 96.8568,68.6633 94.5,68.5C 94.5,69.5 94.5,70.5 94.5,71.5C 98.0958,71.8467 101.429,71.18 104.5,69.5C 106.041,70.2858 107.374,71.2858 108.5,72.5C 107.833,73.5 107.167,74.5 106.5,75.5C 105.167,75.8333 103.833,76.1667 102.5,76.5C 99.7884,76.7375 97.2884,76.7375 95,76.5C 94.51,77.7932 94.3433,79.1266 94.5,80.5C 92.8008,80.3398 91.1341,80.5065 89.5,81C 90.1667,81.3333 90.8333,81.6667 91.5,82C 86.7459,84.5869 82.4126,87.7536 78.5,91.5C 79.3094,93.0709 79.6427,94.7376 79.5,96.5C 76.6646,101.505 73.8313,106.505 71,111.5C 69.9386,116.21 68.7719,120.877 67.5,125.5C 67.1667,125.5 66.8333,125.5 66.5,125.5C 66.6199,123.266 66.2865,121.099 65.5,119C 68.3848,114.963 69.3848,110.63 68.5,106C 67.451,105.508 66.451,105.674 65.5,106.5C 64.2473,103.08 65.5807,101.746 69.5,102.5C 69.4208,101.07 69.7542,99.7362 70.5,98.5C 75.3386,96.6782 75.6719,94.3449 71.5,91.5C 70.5581,91.6082 69.7247,91.9415 69,92.5C 68.6667,94.5 68.3333,96.5 68,98.5C 63.4993,101.917 58.4993,104.25 53,105.5C 50.6977,105.4 48.6977,104.733 47,103.5C 45.2298,105.418 43.0631,105.918 40.5,105C 39.7476,104.329 39.4142,103.496 39.5,102.5C 43.389,102.624 46.7223,101.291 49.5,98.5C 52.6645,100.194 55.9978,100.694 59.5,100C 62.5601,93.3648 66.2267,87.1981 70.5,81.5C 72.1454,80.5213 73.4787,79.188 74.5,77.5C 71.5692,74.6849 69.5692,71.3516 68.5,67.5C 69.7647,66.4855 70.4313,64.9855 70.5,63C 71.2596,58.9295 69.5929,56.7629 65.5,56.5C 65.1667,55.5 64.5,54.8333 63.5,54.5C 63.3359,51.8127 63.5026,49.146 64,46.5C 68.3058,42.3251 72.3058,42.6584 76,47.5C 76.0454,50.334 76.8787,52.834 78.5,55C 81.5535,55.1786 84.5535,55.6786 87.5,56.5C 88.9215,59.9221 91.2549,62.2555 94.5,63.5 Z"/></g>
<g><path style="opacity:1" fill="#fcf405" d="M 163.5,81.5 C 161.854,79.1388 159.854,76.9722 157.5,75C 155.527,74.5045 153.527,74.3379 151.5,74.5C 151.821,72.9519 152.821,72.2852 154.5,72.5C 154.64,70.8762 153.973,69.7096 152.5,69C 153.623,67.9563 154.956,67.2896 156.5,67C 155.271,66.2189 153.938,65.7189 152.5,65.5C 149.167,66.7 145.833,66.7 142.5,65.5C 142.5,64.5 142.5,63.5 142.5,62.5C 146.383,62.8909 150.05,62.2242 153.5,60.5C 156.928,62.9254 160.594,64.9254 164.5,66.5C 165.425,65.6431 166.092,64.6431 166.5,63.5C 169.353,62.8114 171.019,60.978 171.5,58C 174.675,58.0533 177.342,57.22 179.5,55.5C 180.496,55.5858 181.329,55.2524 182,54.5C 182.826,59.503 183.993,64.6697 185.5,70C 183.613,72.9821 182.28,76.1488 181.5,79.5C 176.57,81.0038 170.57,81.6705 163.5,81.5 Z"/></g>
<g><path style="opacity:1" fill="#3b341a" d="M 65.5,56.5 C 69.5929,56.7629 71.2596,58.9295 70.5,63C 70.4313,64.9855 69.7647,66.4855 68.5,67.5C 68.5,64.5 68.5,61.5 68.5,58.5C 67.448,58.6495 66.448,58.4828 65.5,58C 64.2617,57.31 64.2617,56.81 65.5,56.5 Z"/></g>
<g><path style="opacity:0.498" fill="#a3a1a0" d="M 193.5,59.5 C 191.771,60.2362 190.771,61.5695 190.5,63.5C 189.566,62.4324 189.232,61.099 189.5,59.5C 190.833,59.5 192.167,59.5 193.5,59.5 Z"/></g>
<g><path style="opacity:1" fill="#6c5e23" d="M 130.5,60.5 C 131.487,63.1456 132.487,65.8122 133.5,68.5C 136.939,68.9065 139.939,69.9065 142.5,71.5C 139.272,70.5863 135.939,70.2529 132.5,70.5C 129.818,62.4808 127.818,62.8141 126.5,71.5C 123.615,71.1936 120.948,71.5269 118.5,72.5C 117.609,71.8902 116.609,71.5569 115.5,71.5C 118.337,69.5977 121.671,68.931 125.5,69.5C 125.678,66.7835 126.178,64.1168 127,61.5C 128.011,60.6634 129.178,60.33 130.5,60.5 Z"/></g>
<g><path style="opacity:0.475" fill="#bbb9b8" d="M 190.5,63.5 C 191.771,65.1086 192.771,66.9419 193.5,69C 192.934,69.9947 192.267,70.828 191.5,71.5C 191.425,68.7938 191.092,66.1272 190.5,63.5 Z"/></g>
<g><path style="opacity:0.043" fill="#cccacb" d="M 67.5,64.5 C 67.4431,65.609 67.1098,66.609 66.5,67.5C 66.6287,69.2161 66.962,70.8828 67.5,72.5C 66.0069,71.6879 65.3402,70.3545 65.5,68.5C 65.3402,66.6455 66.0069,65.3121 67.5,64.5 Z"/></g>
<g><path style="opacity:0.973" fill="#3c3322" d="M 191.5,40.5 C 191.973,41.9063 192.973,42.573 194.5,42.5C 196.709,46.1394 197.709,50.1394 197.5,54.5C 196.094,54.9731 195.427,55.9731 195.5,57.5C 195.167,58.5 194.5,59.1667 193.5,59.5C 192.167,59.5 190.833,59.5 189.5,59.5C 189.232,61.099 189.566,62.4324 190.5,63.5C 191.092,66.1272 191.425,68.7938 191.5,71.5C 191.672,72.4916 191.338,73.1583 190.5,73.5C 189.094,73.9731 188.427,74.9731 188.5,76.5C 187.522,76.811 186.855,77.4777 186.5,78.5C 187.521,80.188 188.855,81.5213 190.5,82.5C 191.08,84.7488 192.413,86.4154 194.5,87.5C 194.5,88.5 194.5,89.5 194.5,90.5C 190.725,86.4666 187.058,82.3 183.5,78C 185.319,75.5107 187.152,73.0107 189,70.5C 188.462,67.2065 188.129,63.8732 188,60.5C 189.631,57.7735 191.798,55.6069 194.5,54C 196.776,45.9423 193.776,42.609 185.5,44C 183.032,46.2283 181.865,49.0617 182,52.5C 180.955,53.3734 180.122,54.3734 179.5,55.5C 176.428,55.1826 173.428,55.5159 170.5,56.5C 169.408,59.0237 168.074,61.357 166.5,63.5C 160.695,61.9735 155.362,59.6402 150.5,56.5C 152.861,56.6741 155.194,57.0074 157.5,57.5C 158.287,59.1042 159.62,59.7709 161.5,59.5C 162.601,60.5983 163.934,60.765 165.5,60C 166.252,59.3292 166.586,58.4959 166.5,57.5C 168.262,56.7377 169.262,55.4044 169.5,53.5C 171.042,52.6993 172.708,52.366 174.5,52.5C 176.309,53.2907 178.309,53.2907 180.5,52.5C 180.5,50.1667 180.5,47.8333 180.5,45.5C 183.281,41.9437 186.948,40.2771 191.5,40.5 Z"/></g>
<g><path style="opacity:0.208" fill="#d0d0cf" d="M 166.5,57.5 C 166.586,58.4959 166.252,59.3292 165.5,60C 163.934,60.765 162.601,60.5983 161.5,59.5C 163.514,59.6085 165.18,58.9418 166.5,57.5 Z"/></g>
<g><path style="opacity:0.31" fill="#bfbdbf" d="M 157.5,57.5 C 159.153,57.6596 160.486,58.3263 161.5,59.5C 159.62,59.7709 158.287,59.1042 157.5,57.5 Z"/></g>
<g><path style="opacity:1" fill="#e1dc38" d="M 179.5,55.5 C 177.342,57.22 174.675,58.0533 171.5,58C 171.019,60.978 169.353,62.8114 166.5,63.5C 168.074,61.357 169.408,59.0237 170.5,56.5C 173.428,55.5159 176.428,55.1826 179.5,55.5 Z"/></g>
<g><path style="opacity:1" fill="#e4e738" d="M 132.5,70.5 C 134.969,71.3171 137.635,71.8171 140.5,72C 139.944,72.3826 139.611,72.8826 139.5,73.5C 138.167,74.1667 136.833,74.8333 135.5,75.5C 135.5,74.5 135.5,73.5 135.5,72.5C 131.486,72.3345 127.486,72.5012 123.5,73C 122.829,73.9862 122.829,75.1529 123.5,76.5C 122.5,75.8333 121.5,75.1667 120.5,74.5C 119.5,74.1667 118.833,73.5 118.5,72.5C 120.948,71.5269 123.615,71.1936 126.5,71.5C 127.818,62.8141 129.818,62.4808 132.5,70.5 Z"/></g>
<g><path style="opacity:0.973" fill="#372f1a" d="M 66.5,67.5 C 67.1667,67.5 67.8333,67.5 68.5,67.5C 69.5692,71.3516 71.5692,74.6849 74.5,77.5C 73.4787,79.188 72.1454,80.5213 70.5,81.5C 72.0362,77.587 71.0362,74.587 67.5,72.5C 66.962,70.8828 66.6287,69.2161 66.5,67.5 Z"/></g>
<g><path style="opacity:0.004" fill="#e5e4e4" d="M 190.5,73.5 C 190.573,75.0269 189.906,76.0269 188.5,76.5C 188.427,74.9731 189.094,73.9731 190.5,73.5 Z"/></g>
<g><path style="opacity:1" fill="#dddb39" d="M 144.5,72.5 C 147.079,72.3939 149.412,73.0605 151.5,74.5C 153.527,74.3379 155.527,74.5045 157.5,75C 159.854,76.9722 161.854,79.1388 163.5,81.5C 157.249,78.2068 150.916,75.2068 144.5,72.5 Z"/></g>
<g><path style="opacity:0.212" fill="#bab8ba" d="M 67.5,72.5 C 71.0362,74.587 72.0362,77.587 70.5,81.5C 67.9387,83.6397 65.6054,85.973 63.5,88.5C 65.1931,84.6278 67.5264,81.1278 70.5,78C 69.3606,76.2196 68.3606,74.3863 67.5,72.5 Z"/></g>
<g><path style="opacity:0.027" fill="#d6d4d8" d="M 188.5,76.5 C 188.704,78.6854 189.37,80.6854 190.5,82.5C 188.855,81.5213 187.521,80.188 186.5,78.5C 186.855,77.4777 187.522,76.811 188.5,76.5 Z"/></g>
<g><path style="opacity:1" fill="#f5ef1d" d="M 194.5,90.5 C 194.654,92.9699 195.654,94.9699 197.5,96.5C 197.532,98.5666 198.532,99.8999 200.5,100.5C 202.974,99.7308 205.474,99.0641 208,98.5C 210.729,100.064 213.562,101.397 216.5,102.5C 218.114,102.197 219.448,101.53 220.5,100.5C 222.044,100.297 223.378,99.6302 224.5,98.5C 225.107,98.6236 225.44,98.9569 225.5,99.5C 226.568,100.434 227.901,100.768 229.5,100.5C 229.5,103.167 229.5,105.833 229.5,108.5C 225.537,109.491 221.537,110.491 217.5,111.5C 216.873,112.417 216.539,113.417 216.5,114.5C 216.799,116.604 216.466,118.604 215.5,120.5C 212.47,121.432 209.637,122.765 207,124.5C 206.333,133.833 206.333,143.167 207,152.5C 209.624,154.035 212.457,155.202 215.5,156C 216.57,163.564 220.903,166.731 228.5,165.5C 228.685,167.196 229.519,168.529 231,169.5C 231.494,171.134 231.66,172.801 231.5,174.5C 228.499,178.944 224.833,179.611 220.5,176.5C 222.167,176.5 223.833,176.5 225.5,176.5C 225.5,174.833 225.5,173.167 225.5,171.5C 222.027,170.553 218.86,168.887 216,166.5C 215.744,163.443 215.244,160.443 214.5,157.5C 210.95,156.984 207.617,155.984 204.5,154.5C 203.218,149.114 203.218,143.781 204.5,138.5C 205.327,133.015 205.827,127.348 206,121.5C 208.126,119.623 210.626,118.623 213.5,118.5C 213.756,114.191 212.756,110.191 210.5,106.5C 205.887,105.721 201.22,105.221 196.5,105C 196.186,101.719 195.686,98.5528 195,95.5C 193.989,94.6634 192.822,94.33 191.5,94.5C 191.719,93.325 191.386,92.325 190.5,91.5C 185.211,93.1999 184.211,96.5333 187.5,101.5C 184.243,102.798 184.243,104.631 187.5,107C 187.167,107.333 186.833,107.667 186.5,108C 188.016,109.897 188.683,112.064 188.5,114.5C 182.852,101.512 174.519,90.5118 163.5,81.5C 170.57,81.6705 176.57,81.0038 181.5,79.5C 182.28,76.1488 183.613,72.9821 185.5,70C 183.993,64.6697 182.826,59.503 182,54.5C 181.329,55.2524 180.496,55.5858 179.5,55.5C 180.122,54.3734 180.955,53.3734 182,52.5C 181.865,49.0617 183.032,46.2283 185.5,44C 193.776,42.609 196.776,45.9423 194.5,54C 191.798,55.6069 189.631,57.7735 188,60.5C 188.129,63.8732 188.462,67.2065 189,70.5C 187.152,73.0107 185.319,75.5107 183.5,78C 187.058,82.3 190.725,86.4666 194.5,90.5 Z"/></g>
<g><path style="opacity:1" fill="#e7e32e" d="M 102.5,76.5 C 98.3912,79.0656 94.3912,81.8989 90.5,85C 86.6019,88.7288 82.9352,92.5621 79.5,96.5C 79.6427,94.7376 79.3094,93.0709 78.5,91.5C 82.4126,87.7536 86.7459,84.5869 91.5,82C 90.8333,81.6667 90.1667,81.3333 89.5,81C 91.1341,80.5065 92.8008,80.3398 94.5,80.5C 94.3433,79.1266 94.51,77.7932 95,76.5C 97.2884,76.7375 99.7884,76.7375 102.5,76.5 Z"/></g>
<g><path style="opacity:0.196" fill="#d4d3d2" d="M 190.5,82.5 C 192.587,83.5846 193.92,85.2512 194.5,87.5C 192.413,86.4154 191.08,84.7488 190.5,82.5 Z"/></g>
<g><path style="opacity:0.122" fill="#dddddd" d="M 63.5,88.5 C 63.0248,90.7837 62.0248,92.7837 60.5,94.5C 60.1667,94.5 59.8333,94.5 59.5,94.5C 60.3403,92.1475 61.6736,90.1475 63.5,88.5 Z"/></g>
<g><path style="opacity:0.922" fill="#848072" d="M 194.5,87.5 C 196.417,90.331 198.083,93.331 199.5,96.5C 198.604,95.4937 197.938,95.4937 197.5,96.5C 195.654,94.9699 194.654,92.9699 194.5,90.5C 194.5,89.5 194.5,88.5 194.5,87.5 Z"/></g>
<g><path style="opacity:0.643" fill="#acabac" d="M 38.5,96.5 C 35.2139,95.7929 31.8806,95.4595 28.5,95.5C 31.912,93.1143 35.2453,93.4476 38.5,96.5 Z"/></g>
<g><path style="opacity:0.182" fill="#bcbabc" d="M 51.5,95.5 C 50.1266,95.3433 48.7932,95.51 47.5,96C 46.0843,100.175 43.4176,101.342 39.5,99.5C 38.8728,98.5832 38.5394,97.5832 38.5,96.5C 41.8291,99.5009 44.4957,99.0009 46.5,95C 48.3869,94.2204 50.0536,94.3871 51.5,95.5 Z"/></g>
<g><path style="opacity:1" fill="#fcf405" d="M 204.5,138.5 C 204.245,134.21 203.912,129.877 203.5,125.5C 200.916,126.393 198.249,126.726 195.5,126.5C 196.247,134.602 196.08,142.602 195,150.5C 194.487,149.473 193.987,148.473 193.5,147.5C 193.196,136.383 192.862,125.383 192.5,114.5C 191.167,114.5 189.833,114.5 188.5,114.5C 188.683,112.064 188.016,109.897 186.5,108C 186.833,107.667 187.167,107.333 187.5,107C 184.243,104.631 184.243,102.798 187.5,101.5C 184.211,96.5333 185.211,93.1999 190.5,91.5C 191.386,92.325 191.719,93.325 191.5,94.5C 192.822,94.33 193.989,94.6634 195,95.5C 195.686,98.5528 196.186,101.719 196.5,105C 201.22,105.221 205.887,105.721 210.5,106.5C 212.756,110.191 213.756,114.191 213.5,118.5C 210.626,118.623 208.126,119.623 206,121.5C 205.827,127.348 205.327,133.015 204.5,138.5 Z"/></g>
<g><path style="opacity:0.129" fill="#cfced0" d="M 213.5,98.5 C 212.007,97.5549 210.507,96.5549 209,95.5C 207.234,96.2335 205.401,96.5668 203.5,96.5C 205.851,94.7971 208.518,94.2971 211.5,95C 212.823,95.8159 213.489,96.9826 213.5,98.5 Z"/></g>
<g><path style="opacity:0.035" fill="#cac9c8" d="M 229.5,95.5 C 231.833,95.8333 233.167,97.1667 233.5,99.5C 231.833,98.5 230.5,97.1667 229.5,95.5 Z"/></g>
<g><path style="opacity:0.239" fill="#d2d2d4" d="M 28.5,95.5 C 27.8333,96.8333 26.8333,97.8333 25.5,98.5C 25.5,96.5 26.5,95.5 28.5,95.5 Z"/></g>
<g><path style="opacity:0.863" fill="#807b7a" d="M 59.5,94.5 C 59.8333,94.5 60.1667,94.5 60.5,94.5C 60.4677,96.5666 59.4677,97.8999 57.5,98.5C 55.1643,97.999 53.1643,96.999 51.5,95.5C 53.1986,95.6204 54.8653,95.9537 56.5,96.5C 57.7387,96.0576 58.7387,95.3909 59.5,94.5 Z"/></g>
<g><path style="opacity:0.302" fill="#bdbbbd" d="M 229.5,95.5 C 224.146,94.6827 219.812,96.3493 216.5,100.5C 214.962,100.547 213.962,99.8799 213.5,98.5C 214.873,98.6567 216.207,98.49 217.5,98C 221.142,94.034 225.142,93.2007 229.5,95.5 Z"/></g>
<g><path style="opacity:1" fill="#352d1a" d="M 70.5,81.5 C 66.2267,87.1981 62.5601,93.3648 59.5,100C 55.9978,100.694 52.6645,100.194 49.5,98.5C 46.7223,101.291 43.389,102.624 39.5,102.5C 38.5,100.833 37.1667,99.5 35.5,98.5C 34.7261,97.8529 33.7261,97.5195 32.5,97.5C 30.6455,97.3402 29.3121,98.0069 28.5,99.5C 27.8826,99.6107 27.3826,99.944 27,100.5C 25.3437,109.675 29.177,113.342 38.5,111.5C 40.7689,113.996 42.1023,116.996 42.5,120.5C 45.0531,121.805 47.7198,122.805 50.5,123.5C 51.4742,125.743 51.8076,128.076 51.5,130.5C 50.8333,128.833 50.1667,127.167 49.5,125.5C 45.9669,124.625 42.6336,123.292 39.5,121.5C 39.9452,118.635 39.2785,116.135 37.5,114C 34.5184,113.502 31.5184,113.335 28.5,113.5C 24.4968,109.182 23.4968,104.182 25.5,98.5C 26.8333,97.8333 27.8333,96.8333 28.5,95.5C 31.8806,95.4595 35.2139,95.7929 38.5,96.5C 38.5394,97.5832 38.8728,98.5832 39.5,99.5C 43.4176,101.342 46.0843,100.175 47.5,96C 48.7932,95.51 50.1266,95.3433 51.5,95.5C 53.1643,96.999 55.1643,97.999 57.5,98.5C 59.4677,97.8999 60.4677,96.5666 60.5,94.5C 62.0248,92.7837 63.0248,90.7837 63.5,88.5C 65.6054,85.973 67.9387,83.6397 70.5,81.5 Z"/></g>
<g><path style="opacity:1" fill="#97903c" d="M 35.5,98.5 C 33.0971,98.448 30.7638,98.7814 28.5,99.5C 29.3121,98.0069 30.6455,97.3402 32.5,97.5C 33.7261,97.5195 34.7261,97.8529 35.5,98.5 Z"/></g>
<g><path style="opacity:1" fill="#e5e140" d="M 225.5,99.5 C 226.833,99.5 228.167,99.5 229.5,99.5C 232.332,101.407 233.166,104.073 232,107.5C 230.624,108.705 229.458,110.038 228.5,111.5C 225.287,111.19 222.287,111.523 219.5,112.5C 218.5,113.167 217.5,113.833 216.5,114.5C 216.539,113.417 216.873,112.417 217.5,111.5C 221.537,110.491 225.537,109.491 229.5,108.5C 229.5,105.833 229.5,103.167 229.5,100.5C 227.901,100.768 226.568,100.434 225.5,99.5 Z"/></g>
<g><path style="opacity:0.373" fill="#b8b7b8" d="M 25.5,98.5 C 23.4968,104.182 24.4968,109.182 28.5,113.5C 26.9826,113.489 25.8159,112.823 25,111.5C 24.088,109.341 23.2546,107.175 22.5,105C 22.9496,102.467 23.9496,100.3 25.5,98.5 Z"/></g>
<g><path style="opacity:1" fill="#322918" d="M 199.5,96.5 C 200.702,97.4054 202.036,97.4054 203.5,96.5C 205.401,96.5668 207.234,96.2335 209,95.5C 210.507,96.5549 212.007,97.5549 213.5,98.5C 213.962,99.8799 214.962,100.547 216.5,100.5C 219.812,96.3493 224.146,94.6827 229.5,95.5C 230.5,97.1667 231.833,98.5 233.5,99.5C 233.665,102.85 233.498,106.183 233,109.5C 231.951,111.107 230.451,111.773 228.5,111.5C 229.458,110.038 230.624,108.705 232,107.5C 233.166,104.073 232.332,101.407 229.5,99.5C 228.688,98.0069 227.355,97.3402 225.5,97.5C 223.058,97.2858 221.392,98.2858 220.5,100.5C 219.448,101.53 218.114,102.197 216.5,102.5C 213.562,101.397 210.729,100.064 208,98.5C 205.474,99.0641 202.974,99.7308 200.5,100.5C 198.532,99.8999 197.532,98.5666 197.5,96.5C 197.938,95.4937 198.604,95.4937 199.5,96.5 Z"/></g>
<g><path style="opacity:1" fill="#bfb849" d="M 229.5,99.5 C 228.167,99.5 226.833,99.5 225.5,99.5C 225.44,98.9569 225.107,98.6236 224.5,98.5C 223.378,99.6302 222.044,100.297 220.5,100.5C 221.392,98.2858 223.058,97.2858 225.5,97.5C 227.355,97.3402 228.688,98.0069 229.5,99.5 Z"/></g>
<g><path style="opacity:0.996" fill="#7f786a" d="M 233.5,99.5 C 236.301,103.944 235.968,108.277 232.5,112.5C 231.583,113.127 230.583,113.461 229.5,113.5C 228.833,113.5 228.167,113.5 227.5,113.5C 225.052,112.527 222.385,112.194 219.5,112.5C 222.287,111.523 225.287,111.19 228.5,111.5C 230.451,111.773 231.951,111.107 233,109.5C 233.498,106.183 233.665,102.85 233.5,99.5 Z"/></g>
<g><path style="opacity:0.329" fill="#bebcc0" d="M 28.5,113.5 C 31.5184,113.335 34.5184,113.502 37.5,114C 39.2785,116.135 39.9452,118.635 39.5,121.5C 38.9265,119.212 37.9265,117.045 36.5,115C 35.1971,114.79 33.8638,114.957 32.5,115.5C 30.8295,115.332 29.4961,114.665 28.5,113.5 Z"/></g>
<g><path style="opacity:0.467" fill="#bdbcbc" d="M 227.5,113.5 C 228.167,113.5 228.833,113.5 229.5,113.5C 228.626,114.525 227.459,115.192 226,115.5C 224.113,114.245 222.28,114.245 220.5,115.5C 222.279,113.656 224.612,112.99 227.5,113.5 Z"/></g>
<g><path style="opacity:1" fill="#faf30d" d="M 66.5,125.5 C 63.5487,135.702 64.2153,145.702 68.5,155.5C 68.5,155.833 68.5,156.167 68.5,156.5C 69.1273,159.089 69.1273,161.589 68.5,164C 68.9444,165.762 69.4444,165.595 70,163.5C 70.6667,165.167 70.6667,166.833 70,168.5C 69.2825,167.549 68.4491,167.383 67.5,168C 68.1029,169.825 68.7696,171.659 69.5,173.5C 70.4776,173.023 71.3109,172.357 72,171.5C 73.1396,174.102 73.9729,176.769 74.5,179.5C 73.1796,182.098 71.8462,184.765 70.5,187.5C 73.2057,189.524 74.539,192.19 74.5,195.5C 75.5,195.5 76.5,195.5 77.5,195.5C 77.3412,189.614 78.6745,189.114 81.5,194C 80.8333,195 80.1667,196 79.5,197C 81.288,200.406 80.4547,202.906 77,204.5C 76.6667,202.167 76.3333,199.833 76,197.5C 75.7645,199.119 74.9311,200.119 73.5,200.5C 74.4886,197.751 73.4886,195.751 70.5,194.5C 66.7303,188.471 63.0636,182.305 59.5,176C 56.029,175.6 52.8624,176.434 50,178.5C 47.6304,176.232 44.7971,174.899 41.5,174.5C 39.231,175.203 37.231,176.37 35.5,178C 33.2884,178.789 31.2884,178.622 29.5,177.5C 27.3175,174.052 26.9842,170.385 28.5,166.5C 31.2869,165.523 34.2869,165.19 37.5,165.5C 38.8734,165.657 40.2068,165.49 41.5,165C 43.9675,160.175 47.4675,156.341 52,153.5C 52.4998,142.839 52.6665,132.172 52.5,121.5C 46.8338,121.675 43.5005,119.008 42.5,113.5C 41.4231,112.295 40.0898,111.628 38.5,111.5C 29.177,113.342 25.3437,109.675 27,100.5C 27.3826,99.944 27.8826,99.6107 28.5,99.5C 30.7638,98.7814 33.0971,98.448 35.5,98.5C 37.1667,99.5 38.5,100.833 39.5,102.5C 39.4142,103.496 39.7476,104.329 40.5,105C 43.0631,105.918 45.2298,105.418 47,103.5C 48.6977,104.733 50.6977,105.4 53,105.5C 58.4993,104.25 63.4993,101.917 68,98.5C 68.3333,96.5 68.6667,94.5 69,92.5C 69.7247,91.9415 70.5581,91.6082 71.5,91.5C 75.6719,94.3449 75.3386,96.6782 70.5,98.5C 69.7542,99.7362 69.4208,101.07 69.5,102.5C 65.5807,101.746 64.2473,103.08 65.5,106.5C 66.451,105.674 67.451,105.508 68.5,106C 69.3848,110.63 68.3848,114.963 65.5,119C 66.2865,121.099 66.6199,123.266 66.5,125.5 Z"/></g>
<g><path style="opacity:1" fill="#fcf405" d="M 204.5,138.5 C 203.218,143.781 203.218,149.114 204.5,154.5C 207.617,155.984 210.95,156.984 214.5,157.5C 215.244,160.443 215.744,163.443 216,166.5C 218.86,168.887 222.027,170.553 225.5,171.5C 225.5,173.167 225.5,174.833 225.5,176.5C 223.833,176.5 222.167,176.5 220.5,176.5C 220.389,175.883 220.056,175.383 219.5,175C 217.527,174.505 215.527,174.338 213.5,174.5C 210.606,174.042 208.106,174.709 206,176.5C 202.654,174.522 199.154,174.189 195.5,175.5C 194.011,180.485 191.511,184.819 188,188.5C 187.549,186.071 186.715,185.904 185.5,188C 186.022,188.561 186.355,189.228 186.5,190C 184.9,191.123 183.9,192.623 183.5,194.5C 183.094,192.595 182.761,190.595 182.5,188.5C 180.605,189.973 178.939,191.64 177.5,193.5C 176.522,193.023 175.689,192.357 175,191.5C 172.999,191.834 171.165,191.834 169.5,191.5C 173.901,189.592 176.735,186.258 178,181.5C 179.585,182.376 180.585,183.709 181,185.5C 182.214,183.951 183.714,182.785 185.5,182C 186.867,179.699 187.534,177.199 187.5,174.5C 186.448,174.649 185.448,174.483 184.5,174C 185.717,172.352 186.55,170.519 187,168.5C 187.333,169.833 187.667,171.167 188,172.5C 189.225,167.915 189.725,163.248 189.5,158.5C 189.5,158.167 189.5,157.833 189.5,157.5C 190.825,156.047 191.658,156.381 192,158.5C 194.178,156.708 194.344,154.374 192.5,151.5C 192.511,149.955 192.844,148.622 193.5,147.5C 193.987,148.473 194.487,149.473 195,150.5C 196.08,142.602 196.247,134.602 195.5,126.5C 198.249,126.726 200.916,126.393 203.5,125.5C 203.912,129.877 204.245,134.21 204.5,138.5 Z"/></g>
<g><path style="opacity:0.192" fill="#d3d3d1" d="M 39.5,121.5 C 42.6336,123.292 45.9669,124.625 49.5,125.5C 49.8261,134.017 49.4927,142.35 48.5,150.5C 48.6664,142.493 48.4997,134.493 48,126.5C 45.4331,125.73 42.9331,124.73 40.5,123.5C 39.7025,123.043 39.3691,122.376 39.5,121.5 Z"/></g>
<g><path style="opacity:1" fill="#edea29" d="M 188.5,114.5 C 189.833,114.5 191.167,114.5 192.5,114.5C 192.862,125.383 193.196,136.383 193.5,147.5C 192.844,148.622 192.511,149.955 192.5,151.5C 194.344,154.374 194.178,156.708 192,158.5C 191.658,156.381 190.825,156.047 189.5,157.5C 192.29,143.118 191.956,128.784 188.5,114.5 Z"/></g>
<g><path style="opacity:0.938" fill="#5b5343" d="M 49.5,125.5 C 50.1667,127.167 50.8333,128.833 51.5,130.5C 51.5,134.833 51.5,139.167 51.5,143.5C 50.5269,145.948 50.1936,148.615 50.5,151.5C 48.8333,151.5 47.1667,151.5 45.5,151.5C 46.209,150.596 47.209,150.263 48.5,150.5C 49.4927,142.35 49.8261,134.017 49.5,125.5 Z"/></g>
<g><path style="opacity:1" fill="#e1dd3e" d="M 38.5,111.5 C 40.0898,111.628 41.4231,112.295 42.5,113.5C 43.5005,119.008 46.8338,121.675 52.5,121.5C 52.6665,132.172 52.4998,142.839 52,153.5C 47.4675,156.341 43.9675,160.175 41.5,165C 40.2068,165.49 38.8734,165.657 37.5,165.5C 38.4577,164.038 39.6244,162.705 41,161.5C 41.2511,159.567 41.7511,157.734 42.5,156C 45.3503,154.829 48.1836,153.662 51,152.5C 51.498,149.518 51.6646,146.518 51.5,143.5C 51.5,139.167 51.5,134.833 51.5,130.5C 51.8076,128.076 51.4742,125.743 50.5,123.5C 47.7198,122.805 45.0531,121.805 42.5,120.5C 42.1023,116.996 40.7689,113.996 38.5,111.5 Z"/></g>
<g><path style="opacity:0.18" fill="#d0cfce" d="M 220.5,115.5 C 220.697,122.306 217.364,125.972 210.5,126.5C 209.502,134.472 209.169,142.472 209.5,150.5C 216.873,150.539 220.539,154.206 220.5,161.5C 219.242,159.019 217.908,156.519 216.5,154C 214.02,153.04 211.52,152.207 209,151.5C 208.333,142.833 208.333,134.167 209,125.5C 211.567,124.73 214.067,123.73 216.5,122.5C 217.843,120.096 219.177,117.762 220.5,115.5 Z"/></g>
<g><path style="opacity:1" fill="#eadd3e" d="M 66.5,125.5 C 66.8333,125.5 67.1667,125.5 67.5,125.5C 66.1225,135.551 66.4558,145.551 68.5,155.5C 64.2153,145.702 63.5487,135.702 66.5,125.5 Z"/></g>
<g><path style="opacity:1" fill="#1d2e11" d="M 132.5,70.5 C 135.939,70.2529 139.272,70.5863 142.5,71.5C 143.167,71.8333 143.833,72.1667 144.5,72.5C 150.916,75.2068 157.249,78.2068 163.5,81.5C 174.519,90.5118 182.852,101.512 188.5,114.5C 191.956,128.784 192.29,143.118 189.5,157.5C 189.5,157.833 189.5,158.167 189.5,158.5C 184.8,171.048 177.466,181.881 167.5,191C 157.965,198.973 146.965,203.473 134.5,204.5C 128.464,204.64 122.464,204.307 116.5,203.5C 113.177,202.508 109.844,201.508 106.5,200.5C 105.833,200.5 105.167,200.5 104.5,200.5C 86.9397,190.283 74.9397,175.617 68.5,156.5C 68.5,156.167 68.5,155.833 68.5,155.5C 66.4558,145.551 66.1225,135.551 67.5,125.5C 68.7719,120.877 69.9386,116.21 71,111.5C 73.8313,106.505 76.6646,101.505 79.5,96.5C 82.9352,92.5621 86.6019,88.7288 90.5,85C 94.3912,81.8989 98.3912,79.0656 102.5,76.5C 103.833,76.1667 105.167,75.8333 106.5,75.5C 109.82,74.6068 112.82,73.2735 115.5,71.5C 116.609,71.5569 117.609,71.8902 118.5,72.5C 118.833,73.5 119.5,74.1667 120.5,74.5C 120.5,74.8333 120.5,75.1667 120.5,75.5C 113.221,75.0789 106.887,77.0789 101.5,81.5C 99.6284,82.5114 97.6284,83.3448 95.5,84C 92.823,87.0092 89.823,89.6758 86.5,92C 83.774,95.2993 81.4407,98.7993 79.5,102.5C 78.8333,102.5 78.5,102.833 78.5,103.5C 75.501,108.842 73.001,114.508 71,120.5C 70.6987,126.52 70.1987,132.52 69.5,138.5C 68.9156,148.756 71.249,158.09 76.5,166.5C 78.1398,171.783 80.8065,176.449 84.5,180.5C 87.1831,184.173 90.5164,187.173 94.5,189.5C 98.3342,193.345 102.834,196.345 108,198.5C 110.724,199.687 113.557,200.353 116.5,200.5C 117.167,200.5 117.833,200.5 118.5,200.5C 130.338,202.485 142.005,201.318 153.5,197C 154.056,196.617 154.389,196.117 154.5,195.5C 159.959,192.931 164.959,189.598 169.5,185.5C 176.614,178.397 181.614,170.063 184.5,160.5C 185.956,157.386 187.122,154.052 188,150.5C 188.824,141.657 188.657,132.99 187.5,124.5C 186.399,116.152 183.399,108.819 178.5,102.5C 176.3,98.12 173.467,94.12 170,90.5C 165.214,87.3821 160.714,83.8821 156.5,80C 152.444,79.6488 148.777,78.3155 145.5,76C 143.527,75.5045 141.527,75.3379 139.5,75.5C 139.5,74.8333 139.5,74.1667 139.5,73.5C 139.611,72.8826 139.944,72.3826 140.5,72C 137.635,71.8171 134.969,71.3171 132.5,70.5 Z"/></g>
<g><path style="opacity:1" fill="#1c7d45" d="M 187.5,124.5 C 188.657,132.99 188.824,141.657 188,150.5C 187.122,154.052 185.956,157.386 184.5,160.5C 186.897,148.644 187.897,136.644 187.5,124.5 Z"/></g>
<g><path style="opacity:1" fill="#148342" d="M 78.5,103.5 C 77.9205,109.28 76.7538,114.947 75,120.5C 74.2904,121.973 73.1238,122.64 71.5,122.5C 71.1684,131.857 71.5017,141.19 72.5,150.5C 75.0241,155.544 76.3574,160.878 76.5,166.5C 71.249,158.09 68.9156,148.756 69.5,138.5C 70.1987,132.52 70.6987,126.52 71,120.5C 73.001,114.508 75.501,108.842 78.5,103.5 Z"/></g>
<g><path style="opacity:1" fill="#f5f30d" d="M 117.5,107.5 C 118.167,107.5 118.5,107.833 118.5,108.5C 120.018,116.419 120.685,124.419 120.5,132.5C 119.048,136.377 117.381,140.377 115.5,144.5C 114.676,141.422 112.676,139.755 109.5,139.5C 109.5,139.167 109.5,138.833 109.5,138.5C 109.429,135.689 108.762,133.022 107.5,130.5C 109.218,128.777 110.551,126.777 111.5,124.5C 112.693,124.03 113.36,123.03 113.5,121.5C 112.308,117.77 110.808,114.103 109,110.5C 108.506,108.866 108.34,107.199 108.5,105.5C 108.18,102.102 108.513,98.7683 109.5,95.5C 110.474,97.7427 110.808,100.076 110.5,102.5C 111.5,102.5 112.5,102.5 113.5,102.5C 113.369,105.367 114.703,107.033 117.5,107.5 Z"/></g>
<g><path style="opacity:1" fill="#d5f32d" d="M 149.5,138.5 C 150.042,131.406 151.042,124.406 152.5,117.5C 152.333,115.833 152.167,114.167 152,112.5C 150.724,114.858 149.558,117.192 148.5,119.5C 148.281,114.94 149.948,111.273 153.5,108.5C 153.952,116.475 153.452,124.475 152,132.5C 151.434,134.723 150.6,136.723 149.5,138.5 Z"/></g>
<g><path style="opacity:1" fill="#def122" d="M 111.5,124.5 C 110.551,126.777 109.218,128.777 107.5,130.5C 108.762,133.022 109.429,135.689 109.5,138.5C 108.21,137.942 107.377,136.942 107,135.5C 104.42,126.972 103.92,118.306 105.5,109.5C 109.068,113.87 111.068,118.87 111.5,124.5 Z"/></g>
<g><path style="opacity:1" fill="#298e1d" d="M 124.5,156.5 C 119.738,149.187 118.405,141.187 120.5,132.5C 123.41,124.256 122.743,116.256 118.5,108.5C 118.5,107.833 118.167,107.5 117.5,107.5C 114.949,102.067 112.115,96.7333 109,91.5C 107.563,95.9719 107.063,100.639 107.5,105.5C 106.514,101.03 106.181,96.3633 106.5,91.5C 107.79,90.9423 108.623,89.9423 109,88.5C 113.459,96.3077 117.959,104.141 122.5,112C 123.876,115.876 124.542,119.876 124.5,124C 123.186,130.019 122.186,136.186 121.5,142.5C 121.021,146.589 122.688,148.922 126.5,149.5C 125.833,151.833 125.167,154.167 124.5,156.5 Z"/></g>
<g><path style="opacity:1" fill="#379215" d="M 140.5,106.5 C 136.667,114.212 135.667,122.212 137.5,130.5C 137.5,130.833 137.5,131.167 137.5,131.5C 139.071,138.063 138.738,144.396 136.5,150.5C 136.808,141.735 136.142,133.068 134.5,124.5C 134.711,119.327 135.711,114.327 137.5,109.5C 138.1,108.1 139.1,107.1 140.5,106.5 Z"/></g>
<g><path style="opacity:1" fill="#bfe935" d="M 118.5,108.5 C 122.743,116.256 123.41,124.256 120.5,132.5C 120.685,124.419 120.018,116.419 118.5,108.5 Z"/></g>
<g><path style="opacity:1" fill="#f8f30b" d="M 146.5,114.5 C 145.849,116.826 145.182,119.159 144.5,121.5C 144.833,122.5 145.167,123.5 145.5,124.5C 147.262,123.312 148.262,121.645 148.5,119.5C 149.558,117.192 150.724,114.858 152,112.5C 152.167,114.167 152.333,115.833 152.5,117.5C 151.042,124.406 150.042,131.406 149.5,138.5C 147.833,138.5 146.167,138.5 144.5,138.5C 144.662,140.527 144.495,142.527 144,144.5C 142.333,145.5 141,146.833 140,148.5C 140.126,142.412 139.292,136.745 137.5,131.5C 137.5,131.167 137.5,130.833 137.5,130.5C 137.26,122.938 138.427,115.605 141,108.5C 143.071,105.584 144.405,105.918 145,109.5C 145.333,109.167 145.667,108.833 146,108.5C 146.495,110.473 146.662,112.473 146.5,114.5 Z"/></g>
<g><path style="opacity:1" fill="#409114" d="M 107.5,105.5 C 107.833,105.5 108.167,105.5 108.5,105.5C 108.34,107.199 108.506,108.866 109,110.5C 110.808,114.103 112.308,117.77 113.5,121.5C 113.36,123.03 112.693,124.03 111.5,124.5C 111.068,118.87 109.068,113.87 105.5,109.5C 103.92,118.306 104.42,126.972 107,135.5C 107.377,136.942 108.21,137.942 109.5,138.5C 109.5,138.833 109.5,139.167 109.5,139.5C 110.6,140.605 111.267,141.938 111.5,143.5C 110.5,143.5 109.5,143.5 108.5,143.5C 106.823,139.961 105.323,136.295 104,132.5C 103.333,124.5 103.333,116.5 104,108.5C 105,105.833 106,105.833 107,108.5C 107.483,107.552 107.649,106.552 107.5,105.5 Z"/></g>
<g><path style="opacity:1" fill="#379322" d="M 150.5,94.5 C 151.324,98.3123 151.824,102.312 152,106.5C 155.339,103.943 157.172,104.943 157.5,109.5C 155.768,117.738 154.601,126.072 154,134.5C 151.714,138.616 148.88,142.283 145.5,145.5C 146.569,143.031 147.902,140.698 149.5,138.5C 150.6,136.723 151.434,134.723 152,132.5C 153.452,124.475 153.952,116.475 153.5,108.5C 149.948,111.273 148.281,114.94 148.5,119.5C 148.262,121.645 147.262,123.312 145.5,124.5C 145.167,123.5 144.833,122.5 144.5,121.5C 145.182,119.159 145.849,116.826 146.5,114.5C 148.472,111.916 149.472,108.916 149.5,105.5C 150.482,102.038 150.815,98.3714 150.5,94.5 Z"/></g>
<g><path style="opacity:1" fill="#e2f424" d="M 149.5,105.5 C 149.472,108.916 148.472,111.916 146.5,114.5C 146.662,112.473 146.495,110.473 146,108.5C 145.667,108.833 145.333,109.167 145,109.5C 144.405,105.918 143.071,105.584 141,108.5C 138.427,115.605 137.26,122.938 137.5,130.5C 135.667,122.212 136.667,114.212 140.5,106.5C 141.921,103.991 143.588,101.657 145.5,99.5C 146.794,98.7101 147.961,97.7101 149,96.5C 149.498,99.4816 149.665,102.482 149.5,105.5 Z"/></g>
<g><path style="opacity:1" fill="#06903e" d="M 178.5,102.5 C 183.399,108.819 186.399,116.152 187.5,124.5C 187.897,136.644 186.897,148.644 184.5,160.5C 181.614,170.063 176.614,178.397 169.5,185.5C 164.959,189.598 159.959,192.931 154.5,195.5C 149.744,194.929 145.077,193.929 140.5,192.5C 139.779,194.686 139.113,196.853 138.5,199C 131.872,200.052 125.206,200.552 118.5,200.5C 117.833,200.5 117.167,200.5 116.5,200.5C 113.976,199.26 111.309,198.093 108.5,197C 113.723,196.911 118.723,196.078 123.5,194.5C 123.167,191.833 122.833,189.167 122.5,186.5C 120.678,186.169 119.011,185.502 117.5,184.5C 119.162,181.841 120.496,182.175 121.5,185.5C 122.183,185.137 122.85,184.804 123.5,184.5C 123.261,186.467 123.594,188.301 124.5,190C 131.85,191.647 135.85,188.814 136.5,181.5C 139.635,181.548 141.302,183.215 141.5,186.5C 143.618,187.946 145.951,188.613 148.5,188.5C 153.122,188.844 157.455,188.177 161.5,186.5C 165.332,185.345 168.332,183.012 170.5,179.5C 172.32,177.871 173.653,175.871 174.5,173.5C 173.609,169.39 171.942,165.724 169.5,162.5C 168.876,160.246 167.543,158.579 165.5,157.5C 165.5,157.167 165.5,156.833 165.5,156.5C 163.948,154.041 161.615,152.541 158.5,152C 154.179,151.501 149.846,151.334 145.5,151.5C 145.5,149.5 145.5,147.5 145.5,145.5C 148.88,142.283 151.714,138.616 154,134.5C 154.601,126.072 155.768,117.738 157.5,109.5C 157.172,104.943 155.339,103.943 152,106.5C 151.824,102.312 151.324,98.3123 150.5,94.5C 150.719,93.325 150.386,92.325 149.5,91.5C 147.216,93.6831 145.882,96.3497 145.5,99.5C 143.588,101.657 141.921,103.991 140.5,106.5C 139.1,107.1 138.1,108.1 137.5,109.5C 137.179,107.952 136.179,107.285 134.5,107.5C 134.788,101.771 134.454,96.1045 133.5,90.5C 135.365,89.3338 137.032,89.6671 138.5,91.5C 139.298,89.9223 139.798,88.2556 140,86.5C 141.353,87.6853 142.52,89.0186 143.5,90.5C 144.223,87.9302 145.39,85.5968 147,83.5C 150.361,84.3354 153.194,86.0021 155.5,88.5C 158.281,85.8646 160.947,85.8646 163.5,88.5C 158.637,90.6749 159.303,91.6749 165.5,91.5C 165.5,92.5 165.5,93.5 165.5,94.5C 166.873,94.3433 168.207,94.51 169.5,95C 171.043,96.8783 172.876,98.3783 175,99.5C 175.483,100.448 175.649,101.448 175.5,102.5C 176.5,102.5 177.5,102.5 178.5,102.5 Z"/></g>
<g><path style="opacity:1" fill="#cded29" d="M 117.5,107.5 C 114.703,107.033 113.369,105.367 113.5,102.5C 112.5,102.5 111.5,102.5 110.5,102.5C 110.808,100.076 110.474,97.7427 109.5,95.5C 108.513,98.7683 108.18,102.102 108.5,105.5C 108.167,105.5 107.833,105.5 107.5,105.5C 107.063,100.639 107.563,95.9719 109,91.5C 112.115,96.7333 114.949,102.067 117.5,107.5 Z"/></g>
<g><path style="opacity:1" fill="#ccef37" d="M 150.5,94.5 C 150.815,98.3714 150.482,102.038 149.5,105.5C 149.665,102.482 149.498,99.4816 149,96.5C 147.961,97.7101 146.794,98.7101 145.5,99.5C 145.882,96.3497 147.216,93.6831 149.5,91.5C 150.386,92.325 150.719,93.325 150.5,94.5 Z"/></g>
<g><path style="opacity:1" fill="#088e40" d="M 120.5,75.5 C 120.517,79.305 120.85,83.1383 121.5,87C 122.167,87.1667 122.833,87.3333 123.5,87.5C 125.18,85.9907 127.014,84.6573 129,83.5C 131.488,86.4968 134.654,87.8301 138.5,87.5C 138.283,84.5647 137.617,81.7313 136.5,79C 136.278,76.7253 137.278,75.5587 139.5,75.5C 141.527,75.3379 143.527,75.5045 145.5,76C 148.777,78.3155 152.444,79.6488 156.5,80C 160.714,83.8821 165.214,87.3821 170,90.5C 173.467,94.12 176.3,98.12 178.5,102.5C 177.5,102.5 176.5,102.5 175.5,102.5C 175.649,101.448 175.483,100.448 175,99.5C 172.876,98.3783 171.043,96.8783 169.5,95C 168.207,94.51 166.873,94.3433 165.5,94.5C 165.5,93.5 165.5,92.5 165.5,91.5C 159.303,91.6749 158.637,90.6749 163.5,88.5C 160.947,85.8646 158.281,85.8646 155.5,88.5C 153.194,86.0021 150.361,84.3354 147,83.5C 145.39,85.5968 144.223,87.9302 143.5,90.5C 142.52,89.0186 141.353,87.6853 140,86.5C 139.798,88.2556 139.298,89.9223 138.5,91.5C 137.032,89.6671 135.365,89.3338 133.5,90.5C 134.454,96.1045 134.788,101.771 134.5,107.5C 136.179,107.285 137.179,107.952 137.5,109.5C 135.711,114.327 134.711,119.327 134.5,124.5C 136.142,133.068 136.808,141.735 136.5,150.5C 134.814,154.576 133.147,158.576 131.5,162.5C 130.07,162.579 128.736,162.246 127.5,161.5C 126.675,159.64 125.675,157.974 124.5,156.5C 125.167,154.167 125.833,151.833 126.5,149.5C 122.688,148.922 121.021,146.589 121.5,142.5C 122.186,136.186 123.186,130.019 124.5,124C 124.542,119.876 123.876,115.876 122.5,112C 117.959,104.141 113.459,96.3077 109,88.5C 108.623,89.9423 107.79,90.9423 106.5,91.5C 101.579,91.8651 101.245,90.8651 105.5,88.5C 103.976,86.2076 104.309,84.2076 106.5,82.5C 104.955,81.5481 103.288,81.2148 101.5,81.5C 106.887,77.0789 113.221,75.0789 120.5,75.5 Z"/></g>
<g><path style="opacity:1" fill="#03903f" d="M 101.5,81.5 C 103.288,81.2148 104.955,81.5481 106.5,82.5C 104.309,84.2076 103.976,86.2076 105.5,88.5C 101.245,90.8651 101.579,91.8651 106.5,91.5C 106.181,96.3633 106.514,101.03 107.5,105.5C 107.649,106.552 107.483,107.552 107,108.5C 106,105.833 105,105.833 104,108.5C 103.333,116.5 103.333,124.5 104,132.5C 105.323,136.295 106.823,139.961 108.5,143.5C 109.5,143.5 110.5,143.5 111.5,143.5C 113.25,144.659 114.25,146.326 114.5,148.5C 115.519,150.54 115.519,152.54 114.5,154.5C 113.571,153.311 113.238,151.978 113.5,150.5C 107.866,151.188 102.199,151.688 96.5,152C 87.1269,157.655 82.6269,165.822 83,176.5C 84.1882,177.563 84.6882,178.897 84.5,180.5C 80.8065,176.449 78.1398,171.783 76.5,166.5C 76.3574,160.878 75.0241,155.544 72.5,150.5C 71.5017,141.19 71.1684,131.857 71.5,122.5C 73.1238,122.64 74.2904,121.973 75,120.5C 76.7538,114.947 77.9205,109.28 78.5,103.5C 78.5,102.833 78.8333,102.5 79.5,102.5C 83.5478,98.2396 87.8812,94.2396 92.5,90.5C 95.6909,89.7746 98.6909,89.7746 101.5,90.5C 100.5,89.1667 99.5,87.8333 98.5,86.5C 100.756,85.5791 101.756,83.9124 101.5,81.5 Z"/></g>
<g><path style="opacity:1" fill="#118342" d="M 101.5,81.5 C 101.756,83.9124 100.756,85.5791 98.5,86.5C 99.5,87.8333 100.5,89.1667 101.5,90.5C 98.6909,89.7746 95.6909,89.7746 92.5,90.5C 87.8812,94.2396 83.5478,98.2396 79.5,102.5C 81.4407,98.7993 83.774,95.2993 86.5,92C 89.823,89.6758 92.823,87.0092 95.5,84C 97.6284,83.3448 99.6284,82.5114 101.5,81.5 Z"/></g>
<g><path style="opacity:1" fill="#274e21" d="M 139.5,73.5 C 139.5,74.1667 139.5,74.8333 139.5,75.5C 137.278,75.5587 136.278,76.7253 136.5,79C 137.617,81.7313 138.283,84.5647 138.5,87.5C 134.654,87.8301 131.488,86.4968 129,83.5C 127.014,84.6573 125.18,85.9907 123.5,87.5C 122.833,87.3333 122.167,87.1667 121.5,87C 120.85,83.1383 120.517,79.305 120.5,75.5C 120.5,75.1667 120.5,74.8333 120.5,74.5C 121.5,75.1667 122.5,75.8333 123.5,76.5C 124.404,77.209 124.737,78.209 124.5,79.5C 122.384,81.0881 122.051,83.0881 123.5,85.5C 125.381,83.2663 127.715,81.933 130.5,81.5C 132.355,83.0331 134.188,84.6997 136,86.5C 135.527,83.2419 135.027,79.9086 134.5,76.5C 134.5,75.8333 134.833,75.5 135.5,75.5C 136.833,74.8333 138.167,74.1667 139.5,73.5 Z"/></g>
<g><path style="opacity:1" fill="#ccd151" d="M 134.5,76.5 C 135.027,79.9086 135.527,83.2419 136,86.5C 134.188,84.6997 132.355,83.0331 130.5,81.5C 131.847,82.0283 133.181,82.195 134.5,82C 133.193,80.0565 133.193,78.2232 134.5,76.5 Z"/></g>
<g><path style="opacity:1" fill="#d7d939" d="M 124.5,79.5 C 126.786,79.595 128.786,80.2616 130.5,81.5C 127.715,81.933 125.381,83.2663 123.5,85.5C 122.051,83.0881 122.384,81.0881 124.5,79.5 Z"/></g>
<g><path style="opacity:1" fill="#f6f215" d="M 135.5,75.5 C 134.833,75.5 134.5,75.8333 134.5,76.5C 133.193,78.2232 133.193,80.0565 134.5,82C 133.181,82.195 131.847,82.0283 130.5,81.5C 128.786,80.2616 126.786,79.595 124.5,79.5C 124.737,78.209 124.404,77.209 123.5,76.5C 122.829,75.1529 122.829,73.9862 123.5,73C 127.486,72.5012 131.486,72.3345 135.5,72.5C 135.5,73.5 135.5,74.5 135.5,75.5 Z"/></g>
<g><path style="opacity:1" fill="#dcf126" d="M 120.5,132.5 C 118.405,141.187 119.738,149.187 124.5,156.5C 124.629,158.216 124.962,159.883 125.5,161.5C 124.883,161.389 124.383,161.056 124,160.5C 124.026,164.305 122.192,166.305 118.5,166.5C 118.5,165.167 118.5,163.833 118.5,162.5C 119.268,163.263 119.768,164.263 120,165.5C 122.223,158.593 120.389,152.927 114.5,148.5C 114.25,146.326 113.25,144.659 111.5,143.5C 111.267,141.938 110.6,140.605 109.5,139.5C 112.676,139.755 114.676,141.422 115.5,144.5C 117.381,140.377 119.048,136.377 120.5,132.5 Z"/></g>
<g><path style="opacity:1" fill="#cbef31" d="M 165.5,156.5 C 165.5,156.833 165.5,157.167 165.5,157.5C 161.589,156.617 157.756,155.617 154,154.5C 151.409,154.565 148.909,155.065 146.5,156C 145.529,157.481 144.196,158.315 142.5,158.5C 145.04,154.221 148.874,152.221 154,152.5C 158.196,152.954 162.029,154.287 165.5,156.5 Z"/></g>
<g><path style="opacity:0.298" fill="#bab8b9" d="M 45.5,151.5 C 43.8133,152.918 41.98,154.251 40,155.5C 39.9977,158.051 39.1644,160.051 37.5,161.5C 36.9009,155.441 39.5675,152.108 45.5,151.5 Z"/></g>
<g><path style="opacity:1" fill="#2a8c20" d="M 114.5,148.5 C 120.389,152.927 122.223,158.593 120,165.5C 119.768,164.263 119.268,163.263 118.5,162.5C 117.219,159.553 115.219,157.219 112.5,155.5C 110.393,153.348 107.726,152.348 104.5,152.5C 100.633,152.775 97.3,154.109 94.5,156.5C 91.5222,157.478 89.5222,159.478 88.5,162.5C 84.4031,167.262 83.5698,172.595 86,178.5C 90.4674,184.731 96.4674,188.064 104,188.5C 105.707,188.492 107.207,188.158 108.5,187.5C 110.179,187.108 111.846,186.608 113.5,186C 115.863,183.494 117.53,180.661 118.5,177.5C 119.822,177.33 120.989,177.663 122,178.5C 122.505,180.518 123.005,182.518 123.5,184.5C 122.85,184.804 122.183,185.137 121.5,185.5C 120.496,182.175 119.162,181.841 117.5,184.5C 111.149,190.213 103.982,191.546 96,188.5C 95.2352,188.57 94.7352,188.903 94.5,189.5C 90.5164,187.173 87.1831,184.173 84.5,180.5C 84.6882,178.897 84.1882,177.563 83,176.5C 82.6269,165.822 87.1269,157.655 96.5,152C 102.199,151.688 107.866,151.188 113.5,150.5C 113.238,151.978 113.571,153.311 114.5,154.5C 115.519,152.54 115.519,150.54 114.5,148.5 Z"/></g>
<g><path style="opacity:1" fill="#c5eb34" d="M 112.5,155.5 C 106.363,153.904 100.363,154.237 94.5,156.5C 97.3,154.109 100.633,152.775 104.5,152.5C 107.726,152.348 110.393,153.348 112.5,155.5 Z"/></g>
<g><path style="opacity:1" fill="#d0ed2c" d="M 137.5,131.5 C 139.292,136.745 140.126,142.412 140,148.5C 141,146.833 142.333,145.5 144,144.5C 144.495,142.527 144.662,140.527 144.5,138.5C 146.167,138.5 147.833,138.5 149.5,138.5C 147.902,140.698 146.569,143.031 145.5,145.5C 139.466,150.445 136.633,156.779 137,164.5C 137.333,164.833 137.667,165.167 138,165.5C 138.278,164.584 138.778,163.918 139.5,163.5C 139.5,164.5 139.5,165.5 139.5,166.5C 137.516,166.617 135.85,165.95 134.5,164.5C 133.526,166.743 133.192,169.076 133.5,171.5C 131.735,168.877 131.068,165.877 131.5,162.5C 133.147,158.576 134.814,154.576 136.5,150.5C 138.738,144.396 139.071,138.063 137.5,131.5 Z"/></g>
<g><path style="opacity:1" fill="#faf405" d="M 165.5,157.5 C 167.543,158.579 168.876,160.246 169.5,162.5C 170.053,166.112 171.053,169.612 172.5,173C 171.582,175.086 170.915,177.253 170.5,179.5C 168.332,183.012 165.332,185.345 161.5,186.5C 158.813,186.664 156.146,186.497 153.5,186C 154.706,184.982 154.373,184.482 152.5,184.5C 151.558,184.608 150.725,184.941 150,185.5C 149.558,182.695 150.058,180.028 151.5,177.5C 151.167,176.833 150.833,176.167 150.5,175.5C 149.065,176.824 148.065,178.49 147.5,180.5C 146.28,179.289 145.113,179.289 144,180.5C 140.571,179.122 139.737,176.789 141.5,173.5C 138.85,170.403 139.016,167.403 142,164.5C 142.495,162.527 142.662,160.527 142.5,158.5C 144.196,158.315 145.529,157.481 146.5,156C 148.909,155.065 151.409,154.565 154,154.5C 157.756,155.617 161.589,156.617 165.5,157.5 Z"/></g>
<g><path style="opacity:1" fill="#faf406" d="M 112.5,155.5 C 115.219,157.219 117.219,159.553 118.5,162.5C 118.5,163.833 118.5,165.167 118.5,166.5C 122.192,166.305 124.026,164.305 124,160.5C 124.383,161.056 124.883,161.389 125.5,161.5C 125.5,161.833 125.5,162.167 125.5,162.5C 126.084,165.983 125.251,168.983 123,171.5C 122.51,172.793 122.343,174.127 122.5,175.5C 121.07,175.579 119.736,175.246 118.5,174.5C 117.806,176.755 116.806,178.755 115.5,180.5C 113.514,181.761 111.681,181.428 110,179.5C 108.265,183.718 105.099,185.551 100.5,185C 102.833,185.333 105.167,185.667 107.5,186C 103.463,186.607 99.4631,186.44 95.5,185.5C 95.5,184.5 95.5,183.5 95.5,182.5C 91.124,181.976 87.9574,179.643 86,175.5C 86.1976,171.082 87.031,166.749 88.5,162.5C 89.5222,159.478 91.5222,157.478 94.5,156.5C 100.363,154.237 106.363,153.904 112.5,155.5 Z"/></g>
<g><path style="opacity:1" fill="#2c8e20" d="M 145.5,145.5 C 145.5,147.5 145.5,149.5 145.5,151.5C 149.846,151.334 154.179,151.501 158.5,152C 161.615,152.541 163.948,154.041 165.5,156.5C 162.029,154.287 158.196,152.954 154,152.5C 148.874,152.221 145.04,154.221 142.5,158.5C 140.75,159.659 139.75,161.326 139.5,163.5C 138.778,163.918 138.278,164.584 138,165.5C 137.667,165.167 137.333,164.833 137,164.5C 136.633,156.779 139.466,150.445 145.5,145.5 Z"/></g>
<g><path style="opacity:0.992" fill="#3f3826" d="M 51.5,143.5 C 51.6646,146.518 51.498,149.518 51,152.5C 48.1836,153.662 45.3503,154.829 42.5,156C 41.7511,157.734 41.2511,159.567 41,161.5C 39.6244,162.705 38.4577,164.038 37.5,165.5C 34.2869,165.19 31.2869,165.523 28.5,166.5C 27.0937,166.973 26.427,167.973 26.5,169.5C 25.8333,171.167 25.1667,172.833 24.5,174.5C 24.3677,171.43 24.701,168.43 25.5,165.5C 26.8717,164.488 28.205,163.488 29.5,162.5C 31.9479,161.527 34.6146,161.194 37.5,161.5C 39.1644,160.051 39.9977,158.051 40,155.5C 41.98,154.251 43.8133,152.918 45.5,151.5C 47.1667,151.5 48.8333,151.5 50.5,151.5C 50.1936,148.615 50.5269,145.948 51.5,143.5 Z"/></g>
<g><path style="opacity:0.227" fill="#d3d2d4" d="M 29.5,162.5 C 28.205,163.488 26.8717,164.488 25.5,165.5C 25.6941,163.088 27.0274,162.088 29.5,162.5 Z"/></g>
<g><path style="opacity:0.914" fill="#938f90" d="M 229.5,162.5 C 231.833,162.833 233.167,164.167 233.5,166.5C 233.167,164.167 231.833,162.833 229.5,162.5 Z"/></g>
<g><path style="opacity:1" fill="#beeb35" d="M 169.5,162.5 C 171.942,165.724 173.609,169.39 174.5,173.5C 173.653,175.871 172.32,177.871 170.5,179.5C 170.915,177.253 171.582,175.086 172.5,173C 171.053,169.612 170.053,166.112 169.5,162.5 Z"/></g>
<g><path style="opacity:1" fill="#268d22" d="M 124.5,156.5 C 125.675,157.974 126.675,159.64 127.5,161.5C 128.736,162.246 130.07,162.579 131.5,162.5C 131.068,165.877 131.735,168.877 133.5,171.5C 133.833,172.167 134.167,172.833 134.5,173.5C 133.901,177.655 132.735,181.655 131,185.5C 127.331,187.009 125.831,185.676 126.5,181.5C 125.661,179.219 124.661,176.885 123.5,174.5C 126.464,170.76 127.13,166.76 125.5,162.5C 125.5,162.167 125.5,161.833 125.5,161.5C 124.962,159.883 124.629,158.216 124.5,156.5 Z"/></g>
<g><path style="opacity:1" fill="#ebf219" d="M 142.5,158.5 C 142.662,160.527 142.495,162.527 142,164.5C 139.016,167.403 138.85,170.403 141.5,173.5C 139.737,176.789 140.571,179.122 144,180.5C 145.113,179.289 146.28,179.289 147.5,180.5C 148.065,178.49 149.065,176.824 150.5,175.5C 150.833,176.167 151.167,176.833 151.5,177.5C 150.058,180.028 149.558,182.695 150,185.5C 150.725,184.941 151.558,184.608 152.5,184.5C 154.373,184.482 154.706,184.982 153.5,186C 156.146,186.497 158.813,186.664 161.5,186.5C 157.455,188.177 153.122,188.844 148.5,188.5C 144.099,185.102 140.432,181.102 137.5,176.5C 136.1,175.9 135.1,174.9 134.5,173.5C 134.167,172.833 133.833,172.167 133.5,171.5C 133.192,169.076 133.526,166.743 134.5,164.5C 135.85,165.95 137.516,166.617 139.5,166.5C 139.5,165.5 139.5,164.5 139.5,163.5C 139.75,161.326 140.75,159.659 142.5,158.5 Z"/></g>
<g><path style="opacity:0.167" fill="#e5e5e5" d="M 234.5,168.5 C 235.152,169.449 235.486,170.615 235.5,172C 235.693,174.008 235.026,175.508 233.5,176.5C 234.265,173.904 234.599,171.237 234.5,168.5 Z"/></g>
<g><path style="opacity:0.647" fill="#afaeaf" d="M 25.5,165.5 C 24.701,168.43 24.3677,171.43 24.5,174.5C 24.5,174.833 24.5,175.167 24.5,175.5C 21.883,171.939 22.2164,168.605 25.5,165.5 Z"/></g>
<g><path style="opacity:1" fill="#aba643" d="M 228.5,165.5 C 232.348,167.649 233.348,170.649 231.5,174.5C 231.66,172.801 231.494,171.134 231,169.5C 229.519,168.529 228.685,167.196 228.5,165.5 Z"/></g>
<g><path style="opacity:1" fill="#d4ce51" d="M 28.5,166.5 C 26.9842,170.385 27.3175,174.052 29.5,177.5C 26.8283,175.609 25.8283,172.942 26.5,169.5C 26.427,167.973 27.0937,166.973 28.5,166.5 Z"/></g>
<g><path style="opacity:0.91" fill="#534a33" d="M 26.5,169.5 C 25.8283,172.942 26.8283,175.609 29.5,177.5C 31.2884,178.622 33.2884,178.789 35.5,178C 37.231,176.37 39.231,175.203 41.5,174.5C 44.7971,174.899 47.6304,176.232 50,178.5C 52.8624,176.434 56.029,175.6 59.5,176C 63.0636,182.305 66.7303,188.471 70.5,194.5C 69.5,193.833 68.5,193.167 67.5,192.5C 67.2624,190.596 66.2624,189.262 64.5,188.5C 64.573,186.973 63.9063,185.973 62.5,185.5C 61.9823,182.32 60.3157,179.987 57.5,178.5C 55.8295,178.668 54.4961,179.335 53.5,180.5C 51.5,181.833 49.5,181.833 47.5,180.5C 46.021,176.944 43.6876,175.944 40.5,177.5C 39.1667,178.167 38.1667,179.167 37.5,180.5C 33.6176,181.979 29.7842,181.645 26,179.5C 25.2086,178.255 24.7086,176.922 24.5,175.5C 24.5,175.167 24.5,174.833 24.5,174.5C 25.1667,172.833 25.8333,171.167 26.5,169.5 Z"/></g>
<g><path style="opacity:1" fill="#088e3e" d="M 126.5,181.5 C 126.123,178.475 125.956,175.475 126,172.5C 130.185,170.695 132.185,172.028 132,176.5C 131.444,174.405 130.944,174.238 130.5,176C 132.126,178.989 131.626,181.489 129,183.5C 127.989,182.944 127.156,182.278 126.5,181.5 Z"/></g>
<g><path style="opacity:0.278" fill="#c7c4c6" d="M 40.5,177.5 C 43.6876,175.944 46.021,176.944 47.5,180.5C 45.3718,179.043 43.0384,178.043 40.5,177.5 Z"/></g>
<g><path style="opacity:0.22" fill="#c2c0bf" d="M 214.5,177.5 C 217.411,175.992 219.744,176.825 221.5,180C 224.888,180.659 228.221,180.492 231.5,179.5C 231.389,180.117 231.056,180.617 230.5,181C 225.468,182.412 221.135,181.412 217.5,178C 216.552,177.517 215.552,177.351 214.5,177.5 Z"/></g>
<g><path style="opacity:1" fill="#fbf406" d="M 104.5,200.5 C 105.167,200.5 105.833,200.5 106.5,200.5C 106.261,202.467 106.594,204.301 107.5,206C 110.734,206.2 113.734,207.033 116.5,208.5C 124.199,206.741 132.032,205.741 140,205.5C 143.238,207.197 146.738,208.197 150.5,208.5C 145.703,211.375 140.369,213.042 134.5,213.5C 133.974,215.23 132.974,216.564 131.5,217.5C 130.833,219.833 130.167,222.167 129.5,224.5C 128.167,223.5 126.833,222.5 125.5,221.5C 124.914,221.709 124.414,222.043 124,222.5C 123.677,219.859 122.677,217.525 121,215.5C 120.586,215.957 120.086,216.291 119.5,216.5C 114.702,213.198 109.369,211.698 103.5,212C 104.571,212.852 105.571,213.685 106.5,214.5C 106.565,214.938 106.399,215.272 106,215.5C 102.359,213.787 98.5259,212.787 94.5,212.5C 93.325,212.281 92.325,212.614 91.5,213.5C 90.1433,215.565 88.81,217.565 87.5,219.5C 85.1432,219.663 82.8098,219.497 80.5,219C 78.7756,218.552 78.109,217.718 78.5,216.5C 77.8333,216.833 77.1667,217.167 76.5,217.5C 75.5804,214.014 73.9137,211.014 71.5,208.5C 72.2418,206.65 73.2418,205.984 74.5,206.5C 73.6518,204.591 73.3184,202.591 73.5,200.5C 74.9311,200.119 75.7645,199.119 76,197.5C 76.3333,199.833 76.6667,202.167 77,204.5C 80.4547,202.906 81.288,200.406 79.5,197C 80.1667,196 80.8333,195 81.5,194C 78.6745,189.114 77.3412,189.614 77.5,195.5C 76.5,195.5 75.5,195.5 74.5,195.5C 74.539,192.19 73.2057,189.524 70.5,187.5C 71.8462,184.765 73.1796,182.098 74.5,179.5C 75.2216,179.082 75.7216,178.416 76,177.5C 79.6562,181.148 81.9896,185.481 83,190.5C 83.85,191.424 84.85,191.424 86,190.5C 87.3188,191.319 88.4855,192.319 89.5,193.5C 88.3595,194.425 88.3595,195.259 89.5,196C 88.6721,196.915 87.6721,197.581 86.5,198C 87.3081,198.308 87.9747,198.808 88.5,199.5C 93.8089,199.405 99.1422,199.738 104.5,200.5 Z"/></g>
<g><path style="opacity:0.969" fill="#484028" d="M 219.5,112.5 C 222.385,112.194 225.052,112.527 227.5,113.5C 224.612,112.99 222.279,113.656 220.5,115.5C 219.177,117.762 217.843,120.096 216.5,122.5C 214.067,123.73 211.567,124.73 209,125.5C 208.333,134.167 208.333,142.833 209,151.5C 211.52,152.207 214.02,153.04 216.5,154C 217.908,156.519 219.242,159.019 220.5,161.5C 223.713,161.19 226.713,161.523 229.5,162.5C 230.167,164.5 231.5,165.833 233.5,166.5C 234.338,166.842 234.672,167.508 234.5,168.5C 234.599,171.237 234.265,173.904 233.5,176.5C 232.599,177.29 231.932,178.29 231.5,179.5C 228.221,180.492 224.888,180.659 221.5,180C 219.744,176.825 217.411,175.992 214.5,177.5C 214.5,178.167 214.167,178.5 213.5,178.5C 209.901,179.344 206.234,179.677 202.5,179.5C 200.781,178.978 199.448,177.978 198.5,176.5C 198.735,175.903 199.235,175.57 200,175.5C 205.155,179.166 209.655,178.833 213.5,174.5C 215.527,174.338 217.527,174.505 219.5,175C 220.056,175.383 220.389,175.883 220.5,176.5C 224.833,179.611 228.499,178.944 231.5,174.5C 233.348,170.649 232.348,167.649 228.5,165.5C 220.903,166.731 216.57,163.564 215.5,156C 212.457,155.202 209.624,154.035 207,152.5C 206.333,143.167 206.333,133.833 207,124.5C 209.637,122.765 212.47,121.432 215.5,120.5C 216.466,118.604 216.799,116.604 216.5,114.5C 217.5,113.833 218.5,113.167 219.5,112.5 Z"/></g>
<g><path style="opacity:0.004" fill="#e3e1e3" d="M 233.5,176.5 C 233.715,178.179 233.048,179.179 231.5,179.5C 231.932,178.29 232.599,177.29 233.5,176.5 Z"/></g>
<g><path style="opacity:0.035" fill="#dad9d9" d="M 40.5,177.5 C 40.5,179.5 39.5,180.5 37.5,180.5C 38.1667,179.167 39.1667,178.167 40.5,177.5 Z"/></g>
<g><path style="opacity:0.8" fill="#7d7765" d="M 198.5,176.5 C 199.448,177.978 200.781,178.978 202.5,179.5C 201.325,179.281 200.325,179.614 199.5,180.5C 197.725,183.738 195.725,186.738 193.5,189.5C 193.167,189.5 192.833,189.5 192.5,189.5C 192.5,188.833 192.167,188.5 191.5,188.5C 193.472,184.2 195.806,180.2 198.5,176.5 Z"/></g>
<g><path style="opacity:0.792" fill="#878387" d="M 213.5,178.5 C 212.608,180.714 210.942,181.714 208.5,181.5C 206.201,181.401 204.201,180.734 202.5,179.5C 206.234,179.677 209.901,179.344 213.5,178.5 Z"/></g>
<g><path style="opacity:1" fill="#e0f022" d="M 88.5,162.5 C 87.031,166.749 86.1976,171.082 86,175.5C 87.9574,179.643 91.124,181.976 95.5,182.5C 95.5,183.5 95.5,184.5 95.5,185.5C 99.4631,186.44 103.463,186.607 107.5,186C 105.167,185.667 102.833,185.333 100.5,185C 105.099,185.551 108.265,183.718 110,179.5C 111.681,181.428 113.514,181.761 115.5,180.5C 113.721,181.67 112.721,183.336 112.5,185.5C 110.517,185.157 109.183,185.824 108.5,187.5C 107.207,188.158 105.707,188.492 104,188.5C 96.4674,188.064 90.4674,184.731 86,178.5C 83.5698,172.595 84.4031,167.262 88.5,162.5 Z"/></g>
<g><path style="opacity:0.118" fill="#d9d7d9" d="M 62.5,185.5 C 60.8518,183.571 59.1851,181.571 57.5,179.5C 56.2638,180.246 54.9305,180.579 53.5,180.5C 54.4961,179.335 55.8295,178.668 57.5,178.5C 60.3157,179.987 61.9823,182.32 62.5,185.5 Z"/></g>
<g><path style="opacity:1" fill="#308e1a" d="M 137.5,176.5 C 140.432,181.102 144.099,185.102 148.5,188.5C 145.951,188.613 143.618,187.946 141.5,186.5C 141.302,183.215 139.635,181.548 136.5,181.5C 135.85,188.814 131.85,191.647 124.5,190C 123.594,188.301 123.261,186.467 123.5,184.5C 125.415,187.989 128.415,189.156 132.5,188C 134.541,184.344 136.208,180.511 137.5,176.5 Z"/></g>
<g><path style="opacity:1" fill="#c8ed34" d="M 125.5,162.5 C 127.13,166.76 126.464,170.76 123.5,174.5C 124.661,176.885 125.661,179.219 126.5,181.5C 125.831,185.676 127.331,187.009 131,185.5C 132.735,181.655 133.901,177.655 134.5,173.5C 135.1,174.9 136.1,175.9 137.5,176.5C 136.208,180.511 134.541,184.344 132.5,188C 128.415,189.156 125.415,187.989 123.5,184.5C 123.005,182.518 122.505,180.518 122,178.5C 120.989,177.663 119.822,177.33 118.5,177.5C 117.53,180.661 115.863,183.494 113.5,186C 111.846,186.608 110.179,187.108 108.5,187.5C 109.183,185.824 110.517,185.157 112.5,185.5C 112.721,183.336 113.721,181.67 115.5,180.5C 116.806,178.755 117.806,176.755 118.5,174.5C 119.736,175.246 121.07,175.579 122.5,175.5C 122.343,174.127 122.51,172.793 123,171.5C 125.251,168.983 126.084,165.983 125.5,162.5 Z"/></g>
<g><path style="opacity:0.078" fill="#d7d5d6" d="M 62.5,185.5 C 63.9063,185.973 64.573,186.973 64.5,188.5C 63.0937,188.027 62.427,187.027 62.5,185.5 Z"/></g>
<g><path style="opacity:1" fill="#f0ea24" d="M 68.5,156.5 C 74.9397,175.617 86.9397,190.283 104.5,200.5C 99.1422,199.738 93.8089,199.405 88.5,199.5C 87.9747,198.808 87.3081,198.308 86.5,198C 87.6721,197.581 88.6721,196.915 89.5,196C 88.3595,195.259 88.3595,194.425 89.5,193.5C 88.4855,192.319 87.3188,191.319 86,190.5C 84.85,191.424 83.85,191.424 83,190.5C 81.9896,185.481 79.6562,181.148 76,177.5C 75.7216,178.416 75.2216,179.082 74.5,179.5C 73.9729,176.769 73.1396,174.102 72,171.5C 71.3109,172.357 70.4776,173.023 69.5,173.5C 68.7696,171.659 68.1029,169.825 67.5,168C 68.4491,167.383 69.2825,167.549 70,168.5C 70.6667,166.833 70.6667,165.167 70,163.5C 69.4444,165.595 68.9444,165.762 68.5,164C 69.1273,161.589 69.1273,159.089 68.5,156.5 Z"/></g>
<g><path style="opacity:0.078" fill="#cbc9cb" d="M 64.5,188.5 C 66.2624,189.262 67.2624,190.596 67.5,192.5C 65.7376,191.738 64.7376,190.404 64.5,188.5 Z"/></g>
<g><path style="opacity:0.016" fill="#e0e0df" d="M 192.5,189.5 C 192.833,189.5 193.167,189.5 193.5,189.5C 193.262,191.404 192.262,192.738 190.5,193.5C 190.733,191.938 191.4,190.605 192.5,189.5 Z"/></g>
<g><path style="opacity:1" fill="#f7f016" d="M 189.5,158.5 C 189.725,163.248 189.225,167.915 188,172.5C 187.667,171.167 187.333,169.833 187,168.5C 186.55,170.519 185.717,172.352 184.5,174C 185.448,174.483 186.448,174.649 187.5,174.5C 187.534,177.199 186.867,179.699 185.5,182C 183.714,182.785 182.214,183.951 181,185.5C 180.585,183.709 179.585,182.376 178,181.5C 176.735,186.258 173.901,189.592 169.5,191.5C 171.165,191.834 172.999,191.834 175,191.5C 175.689,192.357 176.522,193.023 177.5,193.5C 178.939,191.64 180.605,189.973 182.5,188.5C 182.761,190.595 183.094,192.595 183.5,194.5C 181.584,198.509 182.584,201.509 186.5,203.5C 188.539,204.911 189.539,206.911 189.5,209.5C 188.883,209.611 188.383,209.944 188,210.5C 187.333,212.5 187.333,214.5 188,216.5C 190.344,219.011 192.844,221.344 195.5,223.5C 195.377,232.515 191.377,234.848 183.5,230.5C 183.397,226.531 181.73,223.531 178.5,221.5C 175.947,220.745 173.28,220.078 170.5,219.5C 169.238,216.736 167.405,214.402 165,212.5C 160.681,214.411 156.515,216.411 152.5,218.5C 150.833,218.5 149.167,218.5 147.5,218.5C 147.918,217.778 148.584,217.278 149.5,217C 148.833,216.667 148.167,216.333 147.5,216C 151.058,214.054 154.725,212.387 158.5,211C 156.091,209.293 153.425,208.46 150.5,208.5C 146.738,208.197 143.238,207.197 140,205.5C 132.032,205.741 124.199,206.741 116.5,208.5C 113.734,207.033 110.734,206.2 107.5,206C 106.594,204.301 106.261,202.467 106.5,200.5C 109.844,201.508 113.177,202.508 116.5,203.5C 116.918,204.222 117.584,204.722 118.5,205C 124.016,205.817 129.35,205.651 134.5,204.5C 146.965,203.473 157.965,198.973 167.5,191C 177.466,181.881 184.8,171.048 189.5,158.5 Z"/></g>
<g><path style="opacity:1" fill="#e9e535" d="M 213.5,174.5 C 209.655,178.833 205.155,179.166 200,175.5C 199.235,175.57 198.735,175.903 198.5,176.5C 195.806,180.2 193.472,184.2 191.5,188.5C 188.507,191.501 185.841,194.835 183.5,198.5C 184.952,199.94 185.952,201.606 186.5,203.5C 182.584,201.509 181.584,198.509 183.5,194.5C 183.9,192.623 184.9,191.123 186.5,190C 186.355,189.228 186.022,188.561 185.5,188C 186.715,185.904 187.549,186.071 188,188.5C 191.511,184.819 194.011,180.485 195.5,175.5C 199.154,174.189 202.654,174.522 206,176.5C 208.106,174.709 210.606,174.042 213.5,174.5 Z"/></g>
<g><path style="opacity:0.008" fill="#d8d6d7" d="M 67.5,192.5 C 68.5,193.167 69.5,193.833 70.5,194.5C 70.5,195.167 70.5,195.833 70.5,196.5C 68.7376,195.738 67.7376,194.404 67.5,192.5 Z"/></g>
<g><path style="opacity:1" fill="#0b8a42" d="M 117.5,184.5 C 119.011,185.502 120.678,186.169 122.5,186.5C 122.833,189.167 123.167,191.833 123.5,194.5C 118.723,196.078 113.723,196.911 108.5,197C 111.309,198.093 113.976,199.26 116.5,200.5C 113.557,200.353 110.724,199.687 108,198.5C 102.834,196.345 98.3342,193.345 94.5,189.5C 94.7352,188.903 95.2352,188.57 96,188.5C 103.982,191.546 111.149,190.213 117.5,184.5 Z"/></g>
<g><path style="opacity:1" fill="#128544" d="M 154.5,195.5 C 154.389,196.117 154.056,196.617 153.5,197C 142.005,201.318 130.338,202.485 118.5,200.5C 125.206,200.552 131.872,200.052 138.5,199C 139.113,196.853 139.779,194.686 140.5,192.5C 145.077,193.929 149.744,194.929 154.5,195.5 Z"/></g>
<g><path style="opacity:0.18" fill="#cfced2" d="M 189.5,194.5 C 189.489,196.017 188.823,197.184 187.5,198C 188.823,198.816 189.489,199.983 189.5,201.5C 185.5,199.167 185.5,196.833 189.5,194.5 Z"/></g>
<g><path style="opacity:0.173" fill="#c7c6c5" d="M 70.5,199.5 C 70.1551,202.198 68.8218,204.198 66.5,205.5C 67.3403,203.147 68.6736,201.147 70.5,199.5 Z"/></g>
<g><path style="opacity:0.976" fill="#423b29" d="M 191.5,188.5 C 192.167,188.5 192.5,188.833 192.5,189.5C 191.4,190.605 190.733,191.938 190.5,193.5C 190.5,194.167 190.167,194.5 189.5,194.5C 185.5,196.833 185.5,199.167 189.5,201.5C 190.338,201.842 190.672,202.508 190.5,203.5C 190.821,204.817 191.154,206.151 191.5,207.5C 191.253,208.713 190.586,209.38 189.5,209.5C 189.539,206.911 188.539,204.911 186.5,203.5C 185.952,201.606 184.952,199.94 183.5,198.5C 185.841,194.835 188.507,191.501 191.5,188.5 Z"/></g>
<g><path style="opacity:1" fill="#3b3423" d="M 70.5,194.5 C 73.4886,195.751 74.4886,197.751 73.5,200.5C 71.4197,202.318 70.0864,204.651 69.5,207.5C 72.1452,213.905 70.4785,218.572 64.5,221.5C 61.5936,231.215 64.9269,234.382 74.5,231C 75.7143,228.649 76.5477,226.149 77,223.5C 77.8159,222.177 78.9826,221.511 80.5,221.5C 81.8734,221.343 83.2068,221.51 84.5,222C 83.2625,222.232 82.2625,222.732 81.5,223.5C 80.5041,223.414 79.6708,223.748 79,224.5C 78.5065,226.134 78.3398,227.801 78.5,229.5C 76.7497,230.659 75.7497,232.326 75.5,234.5C 71.8333,235.833 68.1667,235.833 64.5,234.5C 58.9987,228.664 59.332,223.164 65.5,218C 66.448,217.517 67.448,217.351 68.5,217.5C 68.4657,213.37 67.799,209.37 66.5,205.5C 68.8218,204.198 70.1551,202.198 70.5,199.5C 70.5,198.5 70.5,197.5 70.5,196.5C 70.5,195.833 70.5,195.167 70.5,194.5 Z"/></g>
<g><path style="opacity:1" fill="#6d671d" d="M 116.5,203.5 C 122.464,204.307 128.464,204.64 134.5,204.5C 129.35,205.651 124.016,205.817 118.5,205C 117.584,204.722 116.918,204.222 116.5,203.5 Z"/></g>
<g><path style="opacity:0.6" fill="#b7b6b6" d="M 190.5,203.5 C 192.101,204.519 193.101,206.019 193.5,208C 192.244,209.845 191.244,211.845 190.5,214C 191.604,215.715 192.938,217.215 194.5,218.5C 192.883,217.962 191.216,217.629 189.5,217.5C 189.5,214.833 189.5,212.167 189.5,209.5C 190.586,209.38 191.253,208.713 191.5,207.5C 191.154,206.151 190.821,204.817 190.5,203.5 Z"/></g>
<g><path style="opacity:0.933" fill="#4d452f" d="M 94.5,212.5 C 99.21,215.406 104.21,217.739 109.5,219.5C 108.167,219.5 106.833,219.5 105.5,219.5C 103.485,218.076 101.152,217.41 98.5,217.5C 95.8258,214.51 93.8258,214.843 92.5,218.5C 92.1667,219.5 91.5,220.167 90.5,220.5C 88.1125,223.076 85.1125,224.076 81.5,223.5C 82.2625,222.732 83.2625,222.232 84.5,222C 83.2068,221.51 81.8734,221.343 80.5,221.5C 82.2232,220.193 84.0565,220.193 86,221.5C 86.7172,220.956 87.2172,220.289 87.5,219.5C 88.81,217.565 90.1433,215.565 91.5,213.5C 92.325,212.614 93.325,212.281 94.5,212.5 Z"/></g>
<g><path style="opacity:1" fill="#e3e12f" d="M 94.5,212.5 C 98.5259,212.787 102.359,213.787 106,215.5C 106.399,215.272 106.565,214.938 106.5,214.5C 108.117,215.038 109.784,215.371 111.5,215.5C 111.281,216.675 111.614,217.675 112.5,218.5C 114.657,219.05 116.657,219.717 118.5,220.5C 116.5,220.5 114.5,220.5 112.5,220.5C 111.791,219.596 110.791,219.263 109.5,219.5C 104.21,217.739 99.21,215.406 94.5,212.5 Z"/></g>
<g><path style="opacity:0.09" fill="#dedddd" d="M 98.5,217.5 C 97.1779,217.67 96.0113,217.337 95,216.5C 94.2917,217.381 93.4584,218.047 92.5,218.5C 93.8258,214.843 95.8258,214.51 98.5,217.5 Z"/></g>
<g><path style="opacity:1" fill="#faf20e" d="M 150.5,208.5 C 153.425,208.46 156.091,209.293 158.5,211C 154.725,212.387 151.058,214.054 147.5,216C 148.167,216.333 148.833,216.667 149.5,217C 148.584,217.278 147.918,217.778 147.5,218.5C 145.786,219.738 143.786,220.405 141.5,220.5C 139.78,224.458 138.78,228.792 138.5,233.5C 136.839,234.797 135.172,236.13 133.5,237.5C 130.367,239.36 130.2,241.36 133,243.5C 133.497,245.81 133.663,248.143 133.5,250.5C 125.545,253.548 122.545,250.881 124.5,242.5C 125.582,237.907 123.915,234.907 119.5,233.5C 118.508,229.217 118.174,224.884 118.5,220.5C 116.657,219.717 114.657,219.05 112.5,218.5C 111.614,217.675 111.281,216.675 111.5,215.5C 109.784,215.371 108.117,215.038 106.5,214.5C 105.571,213.685 104.571,212.852 103.5,212C 109.369,211.698 114.702,213.198 119.5,216.5C 120.086,216.291 120.586,215.957 121,215.5C 122.677,217.525 123.677,219.859 124,222.5C 124.414,222.043 124.914,221.709 125.5,221.5C 126.833,222.5 128.167,223.5 129.5,224.5C 130.167,222.167 130.833,219.833 131.5,217.5C 132.974,216.564 133.974,215.23 134.5,213.5C 140.369,213.042 145.703,211.375 150.5,208.5 Z"/></g>
<g><path style="opacity:1" fill="#f3ed21" d="M 73.5,200.5 C 73.3184,202.591 73.6518,204.591 74.5,206.5C 73.2418,205.984 72.2418,206.65 71.5,208.5C 73.9137,211.014 75.5804,214.014 76.5,217.5C 77.1667,217.167 77.8333,216.833 78.5,216.5C 78.109,217.718 78.7756,218.552 80.5,219C 82.8098,219.497 85.1432,219.663 87.5,219.5C 87.2172,220.289 86.7172,220.956 86,221.5C 84.0565,220.193 82.2232,220.193 80.5,221.5C 78.9826,221.511 77.8159,222.177 77,223.5C 76.5477,226.149 75.7143,228.649 74.5,231C 64.9269,234.382 61.5936,231.215 64.5,221.5C 70.4785,218.572 72.1452,213.905 69.5,207.5C 70.0864,204.651 71.4197,202.318 73.5,200.5 Z"/></g>
<g><path style="opacity:0.463" fill="#b1aeab" d="M 98.5,217.5 C 101.152,217.41 103.485,218.076 105.5,219.5C 102.848,219.59 100.515,218.924 98.5,217.5 Z"/></g>
<g><path style="opacity:0.11" fill="#d2d0d0" d="M 159.5,217.5 C 156.854,219.253 153.854,220.253 150.5,220.5C 151.167,219.833 151.833,219.167 152.5,218.5C 154.861,218.326 157.194,217.993 159.5,217.5 Z"/></g>
<g><path style="opacity:0.012" fill="#dcdadc" d="M 165.5,217.5 C 166.906,217.973 167.573,218.973 167.5,220.5C 166.094,220.027 165.427,219.027 165.5,217.5 Z"/></g>
<g><path style="opacity:0.357" fill="#cecdce" d="M 66.5,205.5 C 67.799,209.37 68.4657,213.37 68.5,217.5C 67.448,217.351 66.448,217.517 65.5,218C 59.332,223.164 58.9987,228.664 64.5,234.5C 59.436,230.979 58.2693,226.312 61,220.5C 62.708,218.457 64.708,216.79 67,215.5C 67.5281,212.781 67.0281,210.281 65.5,208C 65.528,206.93 65.8614,206.097 66.5,205.5 Z"/></g>
<g><path style="opacity:0.941" fill="#655c45" d="M 147.5,218.5 C 149.167,218.5 150.833,218.5 152.5,218.5C 151.833,219.167 151.167,219.833 150.5,220.5C 149.791,221.404 148.791,221.737 147.5,221.5C 145.833,221.5 144.167,221.5 142.5,221.5C 142.167,221.5 141.833,221.5 141.5,221.5C 141.5,221.167 141.5,220.833 141.5,220.5C 143.786,220.405 145.786,219.738 147.5,218.5 Z"/></g>
<g><path style="opacity:1" fill="#786a22" d="M 170.5,219.5 C 173.28,220.078 175.947,220.745 178.5,221.5C 175.302,222.036 172.635,221.369 170.5,219.5 Z"/></g>
<g><path style="opacity:0.945" fill="#51493a" d="M 189.5,209.5 C 189.5,212.167 189.5,214.833 189.5,217.5C 191.216,217.629 192.883,217.962 194.5,218.5C 196.262,219.262 197.262,220.596 197.5,222.5C 197.5,223.5 197.5,224.5 197.5,225.5C 196.833,224.833 196.167,224.167 195.5,223.5C 192.844,221.344 190.344,219.011 188,216.5C 187.333,214.5 187.333,212.5 188,210.5C 188.383,209.944 188.883,209.611 189.5,209.5 Z"/></g>
<g><path style="opacity:1" fill="#3f392c" d="M 170.5,219.5 C 172.635,221.369 175.302,222.036 178.5,221.5C 181.73,223.531 183.397,226.531 183.5,230.5C 191.377,234.848 195.377,232.515 195.5,223.5C 196.167,224.167 196.833,224.833 197.5,225.5C 197.5,227.167 197.5,228.833 197.5,230.5C 195.738,231.262 194.738,232.596 194.5,234.5C 190.318,236.118 186.318,235.785 182.5,233.5C 181.185,230.678 180.185,227.678 179.5,224.5C 177.357,223.246 175.357,223.246 173.5,224.5C 170.403,225.477 168.403,224.144 167.5,220.5C 167.573,218.973 166.906,217.973 165.5,217.5C 163.705,215.084 161.705,215.084 159.5,217.5C 157.194,217.993 154.861,218.326 152.5,218.5C 156.515,216.411 160.681,214.411 165,212.5C 167.405,214.402 169.238,216.736 170.5,219.5 Z"/></g>
<g><path style="opacity:0.176" fill="#c4c3c3" d="M 165.5,217.5 C 163.612,216.725 161.612,216.725 159.5,217.5C 161.705,215.084 163.705,215.084 165.5,217.5 Z"/></g>
<g><path style="opacity:1" fill="#625f18" d="M 141.5,220.5 C 141.5,220.833 141.5,221.167 141.5,221.5C 141.131,225.768 140.131,229.768 138.5,233.5C 138.78,228.792 139.78,224.458 141.5,220.5 Z"/></g>
<g><path style="opacity:0.243" fill="#bebcbd" d="M 90.5,220.5 C 89.9148,222.922 88.4148,224.589 86,225.5C 81.5329,223.408 79.0329,224.741 78.5,229.5C 78.3398,227.801 78.5065,226.134 79,224.5C 79.6708,223.748 80.5041,223.414 81.5,223.5C 85.1125,224.076 88.1125,223.076 90.5,220.5 Z"/></g>
<g><path style="opacity:0.345" fill="#d6d6d7" d="M 197.5,222.5 C 200.167,225.167 200.167,227.833 197.5,230.5C 197.5,228.833 197.5,227.167 197.5,225.5C 197.5,224.5 197.5,223.5 197.5,222.5 Z"/></g>
<g><path style="opacity:0.714" fill="#98958f" d="M 105.5,219.5 C 106.833,219.5 108.167,219.5 109.5,219.5C 110.791,219.263 111.791,219.596 112.5,220.5C 113.568,221.434 114.901,221.768 116.5,221.5C 116.5,225.5 116.5,229.5 116.5,233.5C 116.167,233.5 115.833,233.5 115.5,233.5C 114.518,230.038 114.185,226.371 114.5,222.5C 111.215,222.072 108.215,221.072 105.5,219.5 Z"/></g>
<g><path style="opacity:0.359" fill="#b3b3b3" d="M 142.5,221.5 C 144.167,221.5 145.833,221.5 147.5,221.5C 146.432,222.434 145.099,222.768 143.5,222.5C 143.815,226.371 143.482,230.038 142.5,233.5C 142.5,229.5 142.5,225.5 142.5,221.5 Z"/></g>
<g><path style="opacity:0.18" fill="#c2c0c2" d="M 173.5,224.5 C 175.357,223.246 177.357,223.246 179.5,224.5C 180.185,227.678 181.185,230.678 182.5,233.5C 179.988,231.522 178.488,228.855 178,225.5C 176.644,224.62 175.144,224.286 173.5,224.5 Z"/></g>
<g><path style="opacity:0.004" fill="#e0dfe1" d="M 197.5,230.5 C 197.262,232.404 196.262,233.738 194.5,234.5C 194.738,232.596 195.738,231.262 197.5,230.5 Z"/></g>
<g><path style="opacity:0.008" fill="#dcdcdc" d="M 78.5,229.5 C 78.2503,231.674 77.2503,233.341 75.5,234.5C 75.7497,232.326 76.7497,230.659 78.5,229.5 Z"/></g>
<g><path style="opacity:0.016" fill="#e3e3e3" d="M 115.5,233.5 C 115.833,233.5 116.167,233.5 116.5,233.5C 117.833,234.833 119.167,236.167 120.5,237.5C 117.796,237.33 116.129,235.997 115.5,233.5 Z"/></g>
<g><path style="opacity:0.051" fill="#d1d0d1" d="M 142.5,233.5 C 141.871,235.997 140.204,237.33 137.5,237.5C 138.945,235.937 140.611,234.604 142.5,233.5 Z"/></g>
<g><path style="opacity:0.365" fill="#c6c6c6" d="M 64.5,234.5 C 68.1667,235.833 71.8333,235.833 75.5,234.5C 74.0425,236.011 72.2092,237.011 70,237.5C 67.7908,237.011 65.9575,236.011 64.5,234.5 Z"/></g>
<g><path style="opacity:0.549" fill="#a1a09f" d="M 182.5,233.5 C 186.318,235.785 190.318,236.118 194.5,234.5C 190.065,238.599 186.065,238.266 182.5,233.5 Z"/></g>
<g><path style="opacity:0.365" fill="#b8b4bb" d="M 120.5,237.5 C 123.048,239.038 123.048,240.704 120.5,242.5C 120.5,240.833 120.5,239.167 120.5,237.5 Z"/></g>
<g><path style="opacity:0.953" fill="#3c3425" d="M 112.5,220.5 C 114.5,220.5 116.5,220.5 118.5,220.5C 118.174,224.884 118.508,229.217 119.5,233.5C 123.915,234.907 125.582,237.907 124.5,242.5C 121.78,246.087 122.114,249.587 125.5,253C 131.429,255.043 134.763,253.043 135.5,247C 134.141,244.042 133.474,240.876 133.5,237.5C 135.172,236.13 136.839,234.797 138.5,233.5C 140.131,229.768 141.131,225.768 141.5,221.5C 141.833,221.5 142.167,221.5 142.5,221.5C 142.5,225.5 142.5,229.5 142.5,233.5C 140.611,234.604 138.945,235.937 137.5,237.5C 137.493,242.688 137.16,248.021 136.5,253.5C 135.5,253.833 134.833,254.5 134.5,255.5C 132.052,256.473 129.385,256.806 126.5,256.5C 121.268,253.357 119.268,248.69 120.5,242.5C 123.048,240.704 123.048,239.038 120.5,237.5C 119.167,236.167 117.833,234.833 116.5,233.5C 116.5,229.5 116.5,225.5 116.5,221.5C 114.901,221.768 113.568,221.434 112.5,220.5 Z"/></g>
<g><path style="opacity:0.239" fill="#c5c3c5" d="M 137.5,237.5 C 137.566,240.962 138.233,244.295 139.5,247.5C 139.333,249.978 138.333,251.978 136.5,253.5C 137.16,248.021 137.493,242.688 137.5,237.5 Z"/></g>
<g><path style="opacity:1" fill="#e4e13c" d="M 133.5,237.5 C 133.474,240.876 134.141,244.042 135.5,247C 134.763,253.043 131.429,255.043 125.5,253C 122.114,249.587 121.78,246.087 124.5,242.5C 122.545,250.881 125.545,253.548 133.5,250.5C 133.663,248.143 133.497,245.81 133,243.5C 130.2,241.36 130.367,239.36 133.5,237.5 Z"/></g>
<g><path style="opacity:0.145" fill="#d2d1d3" d="M 120.5,242.5 C 119.268,248.69 121.268,253.357 126.5,256.5C 123.358,256.201 121.191,254.534 120,251.5C 119.195,248.304 119.362,245.304 120.5,242.5 Z"/></g>
<g><path style="opacity:0.012" fill="#e3e3e3" d="M 136.5,253.5 C 136.5,254.833 135.833,255.5 134.5,255.5C 134.833,254.5 135.5,253.833 136.5,253.5 Z"/></g>
</svg>
